<?xml version="1.0" encoding="UTF-8" standalone="no"?>
<!DOCTYPE svg PUBLIC "-//W3C//DTD SVG 1.1//EN"
 "http://www.w3.org/Graphics/SVG/1.1/DTD/svg11.dtd">
<!-- Generated by graphviz version 9.0.0 (20230911.1827)
 -->
<!-- Pages: 1 -->
<svg width="422pt" height="260pt"
 viewBox="0.00 0.00 422.00 260.00" xmlns="http://www.w3.org/2000/svg" xmlns:xlink="http://www.w3.org/1999/xlink">
<g id="graph0" class="graph" transform="scale(1 1) rotate(0) translate(4 256)">
<polygon fill="white" stroke="none" points="-4,4 -4,-256 418,-256 418,4 -4,4"/>
<!-- 4541269712 -->
<g id="node1" class="node">
<title>4541269712</title>
<ellipse fill="none" stroke="black" cx="279" cy="-234" rx="27" ry="18"/>
<text text-anchor="middle" x="279" y="-228.95" font-family="Times,serif" font-size="14.00">div</text>
</g>
<!-- 4541271440 -->
<g id="node2" class="node">
<title>4541271440</title>
<ellipse fill="none" stroke="black" cx="207" cy="-162" rx="27" ry="18"/>
<text text-anchor="middle" x="207" y="-156.95" font-family="Times,serif" font-size="14.00">div</text>
</g>
<!-- 4541269712&#45;&gt;4541271440 -->
<g id="edge7" class="edge">
<title>4541269712&#45;&gt;4541271440</title>
<path fill="none" stroke="black" d="M264.08,-218.5C254.23,-208.92 241.14,-196.19 229.97,-185.34"/>
<polygon fill="black" stroke="black" points="232.59,-183 222.98,-178.54 227.71,-188.02 232.59,-183"/>
</g>
<!-- 4541275376 -->
<g id="node9" class="node">
<title>4541275376</title>
<ellipse fill="none" stroke="black" cx="315" cy="-162" rx="27" ry="18"/>
<text text-anchor="middle" x="315" y="-156.95" font-family="Times,serif" font-size="14.00">mul</text>
</g>
<!-- 4541269712&#45;&gt;4541275376 -->
<g id="edge12" class="edge">
<title>4541269712&#45;&gt;4541275376</title>
<path fill="none" stroke="black" d="M287.35,-216.76C291.58,-208.55 296.81,-198.37 301.58,-189.09"/>
<polygon fill="black" stroke="black" points="304.54,-190.99 306,-180.49 298.32,-187.79 304.54,-190.99"/>
</g>
<!-- 4541268080 -->
<g id="node3" class="node">
<title>4541268080</title>
<ellipse fill="none" stroke="black" cx="99" cy="-90" rx="27" ry="18"/>
<text text-anchor="middle" x="99" y="-84.95" font-family="Times,serif" font-size="14.00">div</text>
</g>
<!-- 4541271440&#45;&gt;4541268080 -->
<g id="edge3" class="edge">
<title>4541271440&#45;&gt;4541268080</title>
<path fill="none" stroke="black" d="M188.19,-148.81C171.41,-137.93 146.61,-121.86 127.41,-109.42"/>
<polygon fill="black" stroke="black" points="129.52,-106.61 119.23,-104.11 125.72,-112.49 129.52,-106.61"/>
</g>
<!-- 4541268320 -->
<g id="node6" class="node">
<title>4541268320</title>
<ellipse fill="none" stroke="black" cx="207" cy="-90" rx="27" ry="18"/>
<text text-anchor="middle" x="207" y="-84.95" font-family="Times,serif" font-size="14.00">div</text>
</g>
<!-- 4541271440&#45;&gt;4541268320 -->
<g id="edge6" class="edge">
<title>4541271440&#45;&gt;4541268320</title>
<path fill="none" stroke="black" d="M207,-143.7C207,-136.41 207,-127.73 207,-119.54"/>
<polygon fill="black" stroke="black" points="210.5,-119.62 207,-109.62 203.5,-119.62 210.5,-119.62"/>
</g>
<!-- 4541272976 -->
<g id="node4" class="node">
<title>4541272976</title>
<ellipse fill="none" stroke="black" cx="27" cy="-18" rx="27" ry="18"/>
<text text-anchor="middle" x="27" y="-12.95" font-family="Times,serif" font-size="14.00">C</text>
</g>
<!-- 4541268080&#45;&gt;4541272976 -->
<g id="edge1" class="edge">
<title>4541268080&#45;&gt;4541272976</title>
<path fill="none" stroke="black" d="M84.08,-74.5C74.23,-64.92 61.14,-52.19 49.97,-41.34"/>
<polygon fill="black" stroke="black" points="52.59,-39 42.98,-34.54 47.71,-44.02 52.59,-39"/>
</g>
<!-- 4541272832 -->
<g id="node5" class="node">
<title>4541272832</title>
<ellipse fill="none" stroke="black" cx="99" cy="-18" rx="27" ry="18"/>
<text text-anchor="middle" x="99" y="-12.95" font-family="Times,serif" font-size="14.00">B</text>
</g>
<!-- 4541268080&#45;&gt;4541272832 -->
<g id="edge2" class="edge">
<title>4541268080&#45;&gt;4541272832</title>
<path fill="none" stroke="black" d="M99,-71.7C99,-64.41 99,-55.73 99,-47.54"/>
<polygon fill="black" stroke="black" points="102.5,-47.62 99,-37.62 95.5,-47.62 102.5,-47.62"/>
</g>
<!-- 4541268272 -->
<g id="node7" class="node">
<title>4541268272</title>
<ellipse fill="none" stroke="black" cx="171" cy="-18" rx="27" ry="18"/>
<text text-anchor="middle" x="171" y="-12.95" font-family="Times,serif" font-size="14.00">D</text>
</g>
<!-- 4541268320&#45;&gt;4541268272 -->
<g id="edge4" class="edge">
<title>4541268320&#45;&gt;4541268272</title>
<path fill="none" stroke="black" d="M198.65,-72.76C194.42,-64.55 189.19,-54.37 184.42,-45.09"/>
<polygon fill="black" stroke="black" points="187.68,-43.79 180,-36.49 181.46,-46.99 187.68,-43.79"/>
</g>
<!-- 4541268176 -->
<g id="node8" class="node">
<title>4541268176</title>
<ellipse fill="none" stroke="black" cx="243" cy="-18" rx="27" ry="18"/>
<text text-anchor="middle" x="243" y="-12.95" font-family="Times,serif" font-size="14.00">4</text>
</g>
<!-- 4541268320&#45;&gt;4541268176 -->
<g id="edge5" class="edge">
<title>4541268320&#45;&gt;4541268176</title>
<path fill="none" stroke="black" d="M215.35,-72.76C219.58,-64.55 224.81,-54.37 229.58,-45.09"/>
<polygon fill="black" stroke="black" points="232.54,-46.99 234,-36.49 226.32,-43.79 232.54,-46.99"/>
</g>
<!-- 4541275472 -->
<g id="node10" class="node">
<title>4541275472</title>
<ellipse fill="none" stroke="black" cx="315" cy="-90" rx="27" ry="18"/>
<text text-anchor="middle" x="315" y="-84.95" font-family="Times,serif" font-size="14.00">mul</text>
</g>
<!-- 4541275376&#45;&gt;4541275472 -->
<g id="edge10" class="edge">
<title>4541275376&#45;&gt;4541275472</title>
<path fill="none" stroke="black" d="M315,-143.7C315,-136.41 315,-127.73 315,-119.54"/>
<polygon fill="black" stroke="black" points="318.5,-119.62 315,-109.62 311.5,-119.62 318.5,-119.62"/>
</g>
<!-- 4541272352 -->
<g id="node13" class="node">
<title>4541272352</title>
<ellipse fill="none" stroke="black" cx="387" cy="-90" rx="27" ry="18"/>
<text text-anchor="middle" x="387" y="-84.95" font-family="Times,serif" font-size="14.00">&#45;1</text>
</g>
<!-- 4541275376&#45;&gt;4541272352 -->
<g id="edge11" class="edge">
<title>4541275376&#45;&gt;4541272352</title>
<path fill="none" stroke="black" d="M329.92,-146.5C339.77,-136.92 352.86,-124.19 364.03,-113.34"/>
<polygon fill="black" stroke="black" points="366.29,-116.02 371.02,-106.54 361.41,-111 366.29,-116.02"/>
</g>
<!-- 4541272160 -->
<g id="node11" class="node">
<title>4541272160</title>
<ellipse fill="none" stroke="black" cx="315" cy="-18" rx="27" ry="18"/>
<text text-anchor="middle" x="315" y="-12.95" font-family="Times,serif" font-size="14.00">C</text>
</g>
<!-- 4541275472&#45;&gt;4541272160 -->
<g id="edge8" class="edge">
<title>4541275472&#45;&gt;4541272160</title>
<path fill="none" stroke="black" d="M315,-71.7C315,-64.41 315,-55.73 315,-47.54"/>
<polygon fill="black" stroke="black" points="318.5,-47.62 315,-37.62 311.5,-47.62 318.5,-47.62"/>
</g>
<!-- 4541272256 -->
<g id="node12" class="node">
<title>4541272256</title>
<ellipse fill="none" stroke="black" cx="387" cy="-18" rx="27" ry="18"/>
<text text-anchor="middle" x="387" y="-12.95" font-family="Times,serif" font-size="14.00">D</text>
</g>
<!-- 4541275472&#45;&gt;4541272256 -->
<g id="edge9" class="edge">
<title>4541275472&#45;&gt;4541272256</title>
<path fill="none" stroke="black" d="M329.92,-74.5C339.77,-64.92 352.86,-52.19 364.03,-41.34"/>
<polygon fill="black" stroke="black" points="366.29,-44.02 371.02,-34.54 361.41,-39 366.29,-44.02"/>
</g>
</g>
</svg>
