<?xml version="1.0" encoding="UTF-8" standalone="no"?>
<!DOCTYPE svg PUBLIC "-//W3C//DTD SVG 1.1//EN"
 "http://www.w3.org/Graphics/SVG/1.1/DTD/svg11.dtd">
<!-- Generated by graphviz version 9.0.0 (20230911.1827)
 -->
<!-- Pages: 1 -->
<svg width="350pt" height="260pt"
 viewBox="0.00 0.00 350.00 260.00" xmlns="http://www.w3.org/2000/svg" xmlns:xlink="http://www.w3.org/1999/xlink">
<g id="graph0" class="graph" transform="scale(1 1) rotate(0) translate(4 256)">
<polygon fill="white" stroke="none" points="-4,4 -4,-256 346,-256 346,4 -4,4"/>
<!-- 4537333984 -->
<g id="node1" class="node">
<title>4537333984</title>
<ellipse fill="none" stroke="black" cx="135" cy="-234" rx="27" ry="18"/>
<text text-anchor="middle" x="135" y="-228.95" font-family="Times,serif" font-size="14.00">mul</text>
</g>
<!-- 4537333312 -->
<g id="node2" class="node">
<title>4537333312</title>
<ellipse fill="none" stroke="black" cx="99" cy="-162" rx="27" ry="18"/>
<text text-anchor="middle" x="99" y="-156.95" font-family="Times,serif" font-size="14.00">mul</text>
</g>
<!-- 4537333984&#45;&gt;4537333312 -->
<g id="edge3" class="edge">
<title>4537333984&#45;&gt;4537333312</title>
<path fill="none" stroke="black" d="M126.65,-216.76C122.42,-208.55 117.19,-198.37 112.42,-189.09"/>
<polygon fill="black" stroke="black" points="115.68,-187.79 108,-180.49 109.46,-190.99 115.68,-187.79"/>
</g>
<!-- 4537335184 -->
<g id="node5" class="node">
<title>4537335184</title>
<ellipse fill="none" stroke="black" cx="171" cy="-162" rx="27" ry="18"/>
<text text-anchor="middle" x="171" y="-156.95" font-family="Times,serif" font-size="14.00">add</text>
</g>
<!-- 4537333984&#45;&gt;4537335184 -->
<g id="edge10" class="edge">
<title>4537333984&#45;&gt;4537335184</title>
<path fill="none" stroke="black" d="M143.35,-216.76C147.58,-208.55 152.81,-198.37 157.58,-189.09"/>
<polygon fill="black" stroke="black" points="160.54,-190.99 162,-180.49 154.32,-187.79 160.54,-190.99"/>
</g>
<!-- 4537334992 -->
<g id="node3" class="node">
<title>4537334992</title>
<ellipse fill="none" stroke="black" cx="27" cy="-90" rx="27" ry="18"/>
<text text-anchor="middle" x="27" y="-84.95" font-family="Times,serif" font-size="14.00">A</text>
</g>
<!-- 4537333312&#45;&gt;4537334992 -->
<g id="edge1" class="edge">
<title>4537333312&#45;&gt;4537334992</title>
<path fill="none" stroke="black" d="M84.08,-146.5C74.23,-136.92 61.14,-124.19 49.97,-113.34"/>
<polygon fill="black" stroke="black" points="52.59,-111 42.98,-106.54 47.71,-116.02 52.59,-111"/>
</g>
<!-- 4537334896 -->
<g id="node4" class="node">
<title>4537334896</title>
<ellipse fill="none" stroke="black" cx="99" cy="-90" rx="27" ry="18"/>
<text text-anchor="middle" x="99" y="-84.95" font-family="Times,serif" font-size="14.00">A</text>
</g>
<!-- 4537333312&#45;&gt;4537334896 -->
<g id="edge2" class="edge">
<title>4537333312&#45;&gt;4537334896</title>
<path fill="none" stroke="black" d="M99,-143.7C99,-136.41 99,-127.73 99,-119.54"/>
<polygon fill="black" stroke="black" points="102.5,-119.62 99,-109.62 95.5,-119.62 102.5,-119.62"/>
</g>
<!-- 4537335280 -->
<g id="node6" class="node">
<title>4537335280</title>
<ellipse fill="none" stroke="black" cx="171" cy="-90" rx="27" ry="18"/>
<text text-anchor="middle" x="171" y="-84.95" font-family="Times,serif" font-size="14.00">div</text>
</g>
<!-- 4537335184&#45;&gt;4537335280 -->
<g id="edge6" class="edge">
<title>4537335184&#45;&gt;4537335280</title>
<path fill="none" stroke="black" d="M171,-143.7C171,-136.41 171,-127.73 171,-119.54"/>
<polygon fill="black" stroke="black" points="174.5,-119.62 171,-109.62 167.5,-119.62 174.5,-119.62"/>
</g>
<!-- 4537335712 -->
<g id="node9" class="node">
<title>4537335712</title>
<ellipse fill="none" stroke="black" cx="243" cy="-90" rx="27" ry="18"/>
<text text-anchor="middle" x="243" y="-84.95" font-family="Times,serif" font-size="14.00">sub</text>
</g>
<!-- 4537335184&#45;&gt;4537335712 -->
<g id="edge9" class="edge">
<title>4537335184&#45;&gt;4537335712</title>
<path fill="none" stroke="black" d="M185.92,-146.5C195.77,-136.92 208.86,-124.19 220.03,-113.34"/>
<polygon fill="black" stroke="black" points="222.29,-116.02 227.02,-106.54 217.41,-111 222.29,-116.02"/>
</g>
<!-- 4537335472 -->
<g id="node7" class="node">
<title>4537335472</title>
<ellipse fill="none" stroke="black" cx="99" cy="-18" rx="27" ry="18"/>
<text text-anchor="middle" x="99" y="-12.95" font-family="Times,serif" font-size="14.00">A</text>
</g>
<!-- 4537335280&#45;&gt;4537335472 -->
<g id="edge4" class="edge">
<title>4537335280&#45;&gt;4537335472</title>
<path fill="none" stroke="black" d="M156.08,-74.5C146.23,-64.92 133.14,-52.19 121.97,-41.34"/>
<polygon fill="black" stroke="black" points="124.59,-39 114.98,-34.54 119.71,-44.02 124.59,-39"/>
</g>
<!-- 4537335424 -->
<g id="node8" class="node">
<title>4537335424</title>
<ellipse fill="none" stroke="black" cx="171" cy="-18" rx="27" ry="18"/>
<text text-anchor="middle" x="171" y="-12.95" font-family="Times,serif" font-size="14.00">A</text>
</g>
<!-- 4537335280&#45;&gt;4537335424 -->
<g id="edge5" class="edge">
<title>4537335280&#45;&gt;4537335424</title>
<path fill="none" stroke="black" d="M171,-71.7C171,-64.41 171,-55.73 171,-47.54"/>
<polygon fill="black" stroke="black" points="174.5,-47.62 171,-37.62 167.5,-47.62 174.5,-47.62"/>
</g>
<!-- 4537325200 -->
<g id="node10" class="node">
<title>4537325200</title>
<ellipse fill="none" stroke="black" cx="243" cy="-18" rx="27" ry="18"/>
<text text-anchor="middle" x="243" y="-12.95" font-family="Times,serif" font-size="14.00">B</text>
</g>
<!-- 4537335712&#45;&gt;4537325200 -->
<g id="edge7" class="edge">
<title>4537335712&#45;&gt;4537325200</title>
<path fill="none" stroke="black" d="M243,-71.7C243,-64.41 243,-55.73 243,-47.54"/>
<polygon fill="black" stroke="black" points="246.5,-47.62 243,-37.62 239.5,-47.62 246.5,-47.62"/>
</g>
<!-- 4537324000 -->
<g id="node11" class="node">
<title>4537324000</title>
<ellipse fill="none" stroke="black" cx="315" cy="-18" rx="27" ry="18"/>
<text text-anchor="middle" x="315" y="-12.95" font-family="Times,serif" font-size="14.00">C</text>
</g>
<!-- 4537335712&#45;&gt;4537324000 -->
<g id="edge8" class="edge">
<title>4537335712&#45;&gt;4537324000</title>
<path fill="none" stroke="black" d="M257.92,-74.5C267.77,-64.92 280.86,-52.19 292.03,-41.34"/>
<polygon fill="black" stroke="black" points="294.29,-44.02 299.02,-34.54 289.41,-39 294.29,-44.02"/>
</g>
</g>
</svg>
