<?xml version="1.0" encoding="UTF-8" standalone="no"?>
<!DOCTYPE svg PUBLIC "-//W3C//DTD SVG 1.1//EN"
 "http://www.w3.org/Graphics/SVG/1.1/DTD/svg11.dtd">
<!-- Generated by graphviz version 9.0.0 (20230911.1827)
 -->
<!-- Pages: 1 -->
<svg width="278pt" height="260pt"
 viewBox="0.00 0.00 278.00 260.00" xmlns="http://www.w3.org/2000/svg" xmlns:xlink="http://www.w3.org/1999/xlink">
<g id="graph0" class="graph" transform="scale(1 1) rotate(0) translate(4 256)">
<polygon fill="white" stroke="none" points="-4,4 -4,-256 274,-256 274,4 -4,4"/>
<!-- 4537333168 -->
<g id="node1" class="node">
<title>4537333168</title>
<ellipse fill="none" stroke="black" cx="171" cy="-234" rx="27" ry="18"/>
<text text-anchor="middle" x="171" y="-228.95" font-family="Times,serif" font-size="14.00">div</text>
</g>
<!-- 4537333408 -->
<g id="node2" class="node">
<title>4537333408</title>
<ellipse fill="none" stroke="black" cx="135" cy="-162" rx="27" ry="18"/>
<text text-anchor="middle" x="135" y="-156.95" font-family="Times,serif" font-size="14.00">mul</text>
</g>
<!-- 4537333168&#45;&gt;4537333408 -->
<g id="edge7" class="edge">
<title>4537333168&#45;&gt;4537333408</title>
<path fill="none" stroke="black" d="M162.65,-216.76C158.42,-208.55 153.19,-198.37 148.42,-189.09"/>
<polygon fill="black" stroke="black" points="151.68,-187.79 144,-180.49 145.46,-190.99 151.68,-187.79"/>
</g>
<!-- 4537324960 -->
<g id="node9" class="node">
<title>4537324960</title>
<ellipse fill="none" stroke="black" cx="207" cy="-162" rx="27" ry="18"/>
<text text-anchor="middle" x="207" y="-156.95" font-family="Times,serif" font-size="14.00">A</text>
</g>
<!-- 4537333168&#45;&gt;4537324960 -->
<g id="edge8" class="edge">
<title>4537333168&#45;&gt;4537324960</title>
<path fill="none" stroke="black" d="M179.35,-216.76C183.58,-208.55 188.81,-198.37 193.58,-189.09"/>
<polygon fill="black" stroke="black" points="196.54,-190.99 198,-180.49 190.32,-187.79 196.54,-190.99"/>
</g>
<!-- 4537330480 -->
<g id="node3" class="node">
<title>4537330480</title>
<ellipse fill="none" stroke="black" cx="99" cy="-90" rx="27" ry="18"/>
<text text-anchor="middle" x="99" y="-84.95" font-family="Times,serif" font-size="14.00">add</text>
</g>
<!-- 4537333408&#45;&gt;4537330480 -->
<g id="edge3" class="edge">
<title>4537333408&#45;&gt;4537330480</title>
<path fill="none" stroke="black" d="M126.65,-144.76C122.42,-136.55 117.19,-126.37 112.42,-117.09"/>
<polygon fill="black" stroke="black" points="115.68,-115.79 108,-108.49 109.46,-118.99 115.68,-115.79"/>
</g>
<!-- 4537333888 -->
<g id="node6" class="node">
<title>4537333888</title>
<ellipse fill="none" stroke="black" cx="171" cy="-90" rx="27" ry="18"/>
<text text-anchor="middle" x="171" y="-84.95" font-family="Times,serif" font-size="14.00">sub</text>
</g>
<!-- 4537333408&#45;&gt;4537333888 -->
<g id="edge6" class="edge">
<title>4537333408&#45;&gt;4537333888</title>
<path fill="none" stroke="black" d="M143.35,-144.76C147.58,-136.55 152.81,-126.37 157.58,-117.09"/>
<polygon fill="black" stroke="black" points="160.54,-118.99 162,-108.49 154.32,-115.79 160.54,-118.99"/>
</g>
<!-- 4537330528 -->
<g id="node4" class="node">
<title>4537330528</title>
<ellipse fill="none" stroke="black" cx="27" cy="-18" rx="27" ry="18"/>
<text text-anchor="middle" x="27" y="-12.95" font-family="Times,serif" font-size="14.00">C</text>
</g>
<!-- 4537330480&#45;&gt;4537330528 -->
<g id="edge1" class="edge">
<title>4537330480&#45;&gt;4537330528</title>
<path fill="none" stroke="black" d="M84.08,-74.5C74.23,-64.92 61.14,-52.19 49.97,-41.34"/>
<polygon fill="black" stroke="black" points="52.59,-39 42.98,-34.54 47.71,-44.02 52.59,-39"/>
</g>
<!-- 4537333648 -->
<g id="node5" class="node">
<title>4537333648</title>
<ellipse fill="none" stroke="black" cx="99" cy="-18" rx="27" ry="18"/>
<text text-anchor="middle" x="99" y="-12.95" font-family="Times,serif" font-size="14.00">D</text>
</g>
<!-- 4537330480&#45;&gt;4537333648 -->
<g id="edge2" class="edge">
<title>4537330480&#45;&gt;4537333648</title>
<path fill="none" stroke="black" d="M99,-71.7C99,-64.41 99,-55.73 99,-47.54"/>
<polygon fill="black" stroke="black" points="102.5,-47.62 99,-37.62 95.5,-47.62 102.5,-47.62"/>
</g>
<!-- 4537331968 -->
<g id="node7" class="node">
<title>4537331968</title>
<ellipse fill="none" stroke="black" cx="171" cy="-18" rx="27" ry="18"/>
<text text-anchor="middle" x="171" y="-12.95" font-family="Times,serif" font-size="14.00">B</text>
</g>
<!-- 4537333888&#45;&gt;4537331968 -->
<g id="edge4" class="edge">
<title>4537333888&#45;&gt;4537331968</title>
<path fill="none" stroke="black" d="M171,-71.7C171,-64.41 171,-55.73 171,-47.54"/>
<polygon fill="black" stroke="black" points="174.5,-47.62 171,-37.62 167.5,-47.62 174.5,-47.62"/>
</g>
<!-- 4537331920 -->
<g id="node8" class="node">
<title>4537331920</title>
<ellipse fill="none" stroke="black" cx="243" cy="-18" rx="27" ry="18"/>
<text text-anchor="middle" x="243" y="-12.95" font-family="Times,serif" font-size="14.00">B</text>
</g>
<!-- 4537333888&#45;&gt;4537331920 -->
<g id="edge5" class="edge">
<title>4537333888&#45;&gt;4537331920</title>
<path fill="none" stroke="black" d="M185.92,-74.5C195.77,-64.92 208.86,-52.19 220.03,-41.34"/>
<polygon fill="black" stroke="black" points="222.29,-44.02 227.02,-34.54 217.41,-39 222.29,-44.02"/>
</g>
</g>
</svg>
