<?xml version="1.0" encoding="UTF-8" standalone="no"?>
<!DOCTYPE svg PUBLIC "-//W3C//DTD SVG 1.1//EN"
 "http://www.w3.org/Graphics/SVG/1.1/DTD/svg11.dtd">
<!-- Generated by graphviz version 9.0.0 (20230911.1827)
 -->
<!-- Pages: 1 -->
<svg width="476pt" height="332pt"
 viewBox="0.00 0.00 476.00 332.00" xmlns="http://www.w3.org/2000/svg" xmlns:xlink="http://www.w3.org/1999/xlink">
<g id="graph0" class="graph" transform="scale(1 1) rotate(0) translate(4 328)">
<polygon fill="white" stroke="none" points="-4,4 -4,-328 472,-328 472,4 -4,4"/>
<!-- 5081058416 -->
<g id="node1" class="node">
<title>5081058416</title>
<ellipse fill="none" stroke="black" cx="135" cy="-306" rx="27" ry="18"/>
<text text-anchor="middle" x="135" y="-300.95" font-family="Times,serif" font-size="14.00">div</text>
</g>
<!-- 5081069792 -->
<g id="node2" class="node">
<title>5081069792</title>
<ellipse fill="none" stroke="black" cx="99" cy="-234" rx="27" ry="18"/>
<text text-anchor="middle" x="99" y="-228.95" font-family="Times,serif" font-size="14.00">div</text>
</g>
<!-- 5081058416&#45;&gt;5081069792 -->
<g id="edge5" class="edge">
<title>5081058416&#45;&gt;5081069792</title>
<path fill="none" stroke="black" d="M126.65,-288.76C122.42,-280.55 117.19,-270.37 112.42,-261.09"/>
<polygon fill="black" stroke="black" points="115.68,-259.79 108,-252.49 109.46,-262.99 115.68,-259.79"/>
</g>
<!-- 5081062832 -->
<g id="node7" class="node">
<title>5081062832</title>
<ellipse fill="none" stroke="black" cx="207" cy="-234" rx="27" ry="18"/>
<text text-anchor="middle" x="207" y="-228.95" font-family="Times,serif" font-size="14.00">add</text>
</g>
<!-- 5081058416&#45;&gt;5081062832 -->
<g id="edge16" class="edge">
<title>5081058416&#45;&gt;5081062832</title>
<path fill="none" stroke="black" d="M149.92,-290.5C159.77,-280.92 172.86,-268.19 184.03,-257.34"/>
<polygon fill="black" stroke="black" points="186.29,-260.02 191.02,-250.54 181.41,-255 186.29,-260.02"/>
</g>
<!-- 5081064512 -->
<g id="node3" class="node">
<title>5081064512</title>
<ellipse fill="none" stroke="black" cx="27" cy="-162" rx="27" ry="18"/>
<text text-anchor="middle" x="27" y="-156.95" font-family="Times,serif" font-size="14.00">ef</text>
</g>
<!-- 5081069792&#45;&gt;5081064512 -->
<g id="edge1" class="edge">
<title>5081069792&#45;&gt;5081064512</title>
<path fill="none" stroke="black" d="M84.08,-218.5C74.23,-208.92 61.14,-196.19 49.97,-185.34"/>
<polygon fill="black" stroke="black" points="52.59,-183 42.98,-178.54 47.71,-188.02 52.59,-183"/>
</g>
<!-- 5081067152 -->
<g id="node4" class="node">
<title>5081067152</title>
<ellipse fill="none" stroke="black" cx="99" cy="-162" rx="27" ry="18"/>
<text text-anchor="middle" x="99" y="-156.95" font-family="Times,serif" font-size="14.00">add</text>
</g>
<!-- 5081069792&#45;&gt;5081067152 -->
<g id="edge4" class="edge">
<title>5081069792&#45;&gt;5081067152</title>
<path fill="none" stroke="black" d="M99,-215.7C99,-208.41 99,-199.73 99,-191.54"/>
<polygon fill="black" stroke="black" points="102.5,-191.62 99,-181.62 95.5,-191.62 102.5,-191.62"/>
</g>
<!-- 5081058704 -->
<g id="node5" class="node">
<title>5081058704</title>
<ellipse fill="none" stroke="black" cx="27" cy="-90" rx="27" ry="18"/>
<text text-anchor="middle" x="27" y="-84.95" font-family="Times,serif" font-size="14.00">ef</text>
</g>
<!-- 5081067152&#45;&gt;5081058704 -->
<g id="edge2" class="edge">
<title>5081067152&#45;&gt;5081058704</title>
<path fill="none" stroke="black" d="M84.08,-146.5C74.23,-136.92 61.14,-124.19 49.97,-113.34"/>
<polygon fill="black" stroke="black" points="52.59,-111 42.98,-106.54 47.71,-116.02 52.59,-111"/>
</g>
<!-- 5081057696 -->
<g id="node6" class="node">
<title>5081057696</title>
<ellipse fill="none" stroke="black" cx="99" cy="-90" rx="27" ry="18"/>
<text text-anchor="middle" x="99" y="-84.95" font-family="Times,serif" font-size="14.00">nf</text>
</g>
<!-- 5081067152&#45;&gt;5081057696 -->
<g id="edge3" class="edge">
<title>5081067152&#45;&gt;5081057696</title>
<path fill="none" stroke="black" d="M99,-143.7C99,-136.41 99,-127.73 99,-119.54"/>
<polygon fill="black" stroke="black" points="102.5,-119.62 99,-109.62 95.5,-119.62 102.5,-119.62"/>
</g>
<!-- 5081058176 -->
<g id="node8" class="node">
<title>5081058176</title>
<ellipse fill="none" stroke="black" cx="207" cy="-162" rx="27" ry="18"/>
<text text-anchor="middle" x="207" y="-156.95" font-family="Times,serif" font-size="14.00">div</text>
</g>
<!-- 5081062832&#45;&gt;5081058176 -->
<g id="edge10" class="edge">
<title>5081062832&#45;&gt;5081058176</title>
<path fill="none" stroke="black" d="M207,-215.7C207,-208.41 207,-199.73 207,-191.54"/>
<polygon fill="black" stroke="black" points="210.5,-191.62 207,-181.62 203.5,-191.62 210.5,-191.62"/>
</g>
<!-- 5081066048 -->
<g id="node13" class="node">
<title>5081066048</title>
<ellipse fill="none" stroke="black" cx="315" cy="-162" rx="27" ry="18"/>
<text text-anchor="middle" x="315" y="-156.95" font-family="Times,serif" font-size="14.00">div</text>
</g>
<!-- 5081062832&#45;&gt;5081066048 -->
<g id="edge15" class="edge">
<title>5081062832&#45;&gt;5081066048</title>
<path fill="none" stroke="black" d="M225.81,-220.81C242.59,-209.93 267.39,-193.86 286.59,-181.42"/>
<polygon fill="black" stroke="black" points="288.28,-184.49 294.77,-176.11 284.48,-178.61 288.28,-184.49"/>
</g>
<!-- 5081061968 -->
<g id="node9" class="node">
<title>5081061968</title>
<ellipse fill="none" stroke="black" cx="171" cy="-90" rx="27" ry="18"/>
<text text-anchor="middle" x="171" y="-84.95" font-family="Times,serif" font-size="14.00">ep</text>
</g>
<!-- 5081058176&#45;&gt;5081061968 -->
<g id="edge6" class="edge">
<title>5081058176&#45;&gt;5081061968</title>
<path fill="none" stroke="black" d="M198.65,-144.76C194.42,-136.55 189.19,-126.37 184.42,-117.09"/>
<polygon fill="black" stroke="black" points="187.68,-115.79 180,-108.49 181.46,-118.99 187.68,-115.79"/>
</g>
<!-- 5081069456 -->
<g id="node10" class="node">
<title>5081069456</title>
<ellipse fill="none" stroke="black" cx="243" cy="-90" rx="27" ry="18"/>
<text text-anchor="middle" x="243" y="-84.95" font-family="Times,serif" font-size="14.00">add</text>
</g>
<!-- 5081058176&#45;&gt;5081069456 -->
<g id="edge9" class="edge">
<title>5081058176&#45;&gt;5081069456</title>
<path fill="none" stroke="black" d="M215.35,-144.76C219.58,-136.55 224.81,-126.37 229.58,-117.09"/>
<polygon fill="black" stroke="black" points="232.54,-118.99 234,-108.49 226.32,-115.79 232.54,-118.99"/>
</g>
<!-- 5081066624 -->
<g id="node11" class="node">
<title>5081066624</title>
<ellipse fill="none" stroke="black" cx="189" cy="-18" rx="27" ry="18"/>
<text text-anchor="middle" x="189" y="-12.95" font-family="Times,serif" font-size="14.00">ep</text>
</g>
<!-- 5081069456&#45;&gt;5081066624 -->
<g id="edge7" class="edge">
<title>5081069456&#45;&gt;5081066624</title>
<path fill="none" stroke="black" d="M231.02,-73.46C224.23,-64.67 215.6,-53.48 207.92,-43.53"/>
<polygon fill="black" stroke="black" points="210.75,-41.47 201.88,-35.69 205.21,-45.75 210.75,-41.47"/>
</g>
<!-- 5081065472 -->
<g id="node12" class="node">
<title>5081065472</title>
<ellipse fill="none" stroke="black" cx="261" cy="-18" rx="27" ry="18"/>
<text text-anchor="middle" x="261" y="-12.95" font-family="Times,serif" font-size="14.00">np</text>
</g>
<!-- 5081069456&#45;&gt;5081065472 -->
<g id="edge8" class="edge">
<title>5081069456&#45;&gt;5081065472</title>
<path fill="none" stroke="black" d="M247.36,-72.05C249.3,-64.49 251.65,-55.37 253.84,-46.85"/>
<polygon fill="black" stroke="black" points="257.21,-47.81 256.31,-37.25 250.43,-46.07 257.21,-47.81"/>
</g>
<!-- 5081069504 -->
<g id="node14" class="node">
<title>5081069504</title>
<ellipse fill="none" stroke="black" cx="315" cy="-90" rx="27" ry="18"/>
<text text-anchor="middle" x="315" y="-84.95" font-family="Times,serif" font-size="14.00">ef</text>
</g>
<!-- 5081066048&#45;&gt;5081069504 -->
<g id="edge11" class="edge">
<title>5081066048&#45;&gt;5081069504</title>
<path fill="none" stroke="black" d="M315,-143.7C315,-136.41 315,-127.73 315,-119.54"/>
<polygon fill="black" stroke="black" points="318.5,-119.62 315,-109.62 311.5,-119.62 318.5,-119.62"/>
</g>
<!-- 5081070800 -->
<g id="node15" class="node">
<title>5081070800</title>
<ellipse fill="none" stroke="black" cx="387" cy="-90" rx="27" ry="18"/>
<text text-anchor="middle" x="387" y="-84.95" font-family="Times,serif" font-size="14.00">add</text>
</g>
<!-- 5081066048&#45;&gt;5081070800 -->
<g id="edge14" class="edge">
<title>5081066048&#45;&gt;5081070800</title>
<path fill="none" stroke="black" d="M329.92,-146.5C339.77,-136.92 352.86,-124.19 364.03,-113.34"/>
<polygon fill="black" stroke="black" points="366.29,-116.02 371.02,-106.54 361.41,-111 366.29,-116.02"/>
</g>
<!-- 5081058512 -->
<g id="node16" class="node">
<title>5081058512</title>
<ellipse fill="none" stroke="black" cx="369" cy="-18" rx="27" ry="18"/>
<text text-anchor="middle" x="369" y="-12.95" font-family="Times,serif" font-size="14.00">ef</text>
</g>
<!-- 5081070800&#45;&gt;5081058512 -->
<g id="edge12" class="edge">
<title>5081070800&#45;&gt;5081058512</title>
<path fill="none" stroke="black" d="M382.64,-72.05C380.7,-64.49 378.35,-55.37 376.16,-46.85"/>
<polygon fill="black" stroke="black" points="379.57,-46.07 373.69,-37.25 372.79,-47.81 379.57,-46.07"/>
</g>
<!-- 5081070320 -->
<g id="node17" class="node">
<title>5081070320</title>
<ellipse fill="none" stroke="black" cx="441" cy="-18" rx="27" ry="18"/>
<text text-anchor="middle" x="441" y="-12.95" font-family="Times,serif" font-size="14.00">nf</text>
</g>
<!-- 5081070800&#45;&gt;5081070320 -->
<g id="edge13" class="edge">
<title>5081070800&#45;&gt;5081070320</title>
<path fill="none" stroke="black" d="M398.98,-73.46C405.77,-64.67 414.4,-53.48 422.08,-43.53"/>
<polygon fill="black" stroke="black" points="424.79,-45.75 428.12,-35.69 419.25,-41.47 424.79,-45.75"/>
</g>
</g>
</svg>
