<?xml version="1.0" encoding="UTF-8" standalone="no"?>
<!DOCTYPE svg PUBLIC "-//W3C//DTD SVG 1.1//EN"
 "http://www.w3.org/Graphics/SVG/1.1/DTD/svg11.dtd">
<!-- Generated by graphviz version 9.0.0 (20230911.1827)
 -->
<!-- Pages: 1 -->
<svg width="314pt" height="260pt"
 viewBox="0.00 0.00 314.00 260.00" xmlns="http://www.w3.org/2000/svg" xmlns:xlink="http://www.w3.org/1999/xlink">
<g id="graph0" class="graph" transform="scale(1 1) rotate(0) translate(4 256)">
<polygon fill="white" stroke="none" points="-4,4 -4,-256 310,-256 310,4 -4,4"/>
<!-- 4541274944 -->
<g id="node1" class="node">
<title>4541274944</title>
<ellipse fill="none" stroke="black" cx="171" cy="-234" rx="27" ry="18"/>
<text text-anchor="middle" x="171" y="-228.95" font-family="Times,serif" font-size="14.00">mul</text>
</g>
<!-- 4541269184 -->
<g id="node2" class="node">
<title>4541269184</title>
<ellipse fill="none" stroke="black" cx="135" cy="-162" rx="27" ry="18"/>
<text text-anchor="middle" x="135" y="-156.95" font-family="Times,serif" font-size="14.00">add</text>
</g>
<!-- 4541274944&#45;&gt;4541269184 -->
<g id="edge5" class="edge">
<title>4541274944&#45;&gt;4541269184</title>
<path fill="none" stroke="black" d="M162.65,-216.76C158.42,-208.55 153.19,-198.37 148.42,-189.09"/>
<polygon fill="black" stroke="black" points="151.68,-187.79 144,-180.49 145.46,-190.99 151.68,-187.79"/>
</g>
<!-- 4541275712 -->
<g id="node7" class="node">
<title>4541275712</title>
<ellipse fill="none" stroke="black" cx="207" cy="-162" rx="27" ry="18"/>
<text text-anchor="middle" x="207" y="-156.95" font-family="Times,serif" font-size="14.00">sub</text>
</g>
<!-- 4541274944&#45;&gt;4541275712 -->
<g id="edge10" class="edge">
<title>4541274944&#45;&gt;4541275712</title>
<path fill="none" stroke="black" d="M179.35,-216.76C183.58,-208.55 188.81,-198.37 193.58,-189.09"/>
<polygon fill="black" stroke="black" points="196.54,-190.99 198,-180.49 190.32,-187.79 196.54,-190.99"/>
</g>
<!-- 4541269280 -->
<g id="node3" class="node">
<title>4541269280</title>
<ellipse fill="none" stroke="black" cx="63" cy="-90" rx="27" ry="18"/>
<text text-anchor="middle" x="63" y="-84.95" font-family="Times,serif" font-size="14.00">mul</text>
</g>
<!-- 4541269184&#45;&gt;4541269280 -->
<g id="edge3" class="edge">
<title>4541269184&#45;&gt;4541269280</title>
<path fill="none" stroke="black" d="M120.08,-146.5C110.23,-136.92 97.14,-124.19 85.97,-113.34"/>
<polygon fill="black" stroke="black" points="88.59,-111 78.98,-106.54 83.71,-116.02 88.59,-111"/>
</g>
<!-- 4541268464 -->
<g id="node6" class="node">
<title>4541268464</title>
<ellipse fill="none" stroke="black" cx="135" cy="-90" rx="27" ry="18"/>
<text text-anchor="middle" x="135" y="-84.95" font-family="Times,serif" font-size="14.00">C</text>
</g>
<!-- 4541269184&#45;&gt;4541268464 -->
<g id="edge4" class="edge">
<title>4541269184&#45;&gt;4541268464</title>
<path fill="none" stroke="black" d="M135,-143.7C135,-136.41 135,-127.73 135,-119.54"/>
<polygon fill="black" stroke="black" points="138.5,-119.62 135,-109.62 131.5,-119.62 138.5,-119.62"/>
</g>
<!-- 4541273072 -->
<g id="node4" class="node">
<title>4541273072</title>
<ellipse fill="none" stroke="black" cx="27" cy="-18" rx="27" ry="18"/>
<text text-anchor="middle" x="27" y="-12.95" font-family="Times,serif" font-size="14.00">A</text>
</g>
<!-- 4541269280&#45;&gt;4541273072 -->
<g id="edge1" class="edge">
<title>4541269280&#45;&gt;4541273072</title>
<path fill="none" stroke="black" d="M54.65,-72.76C50.42,-64.55 45.19,-54.37 40.42,-45.09"/>
<polygon fill="black" stroke="black" points="43.68,-43.79 36,-36.49 37.46,-46.99 43.68,-43.79"/>
</g>
<!-- 4541277056 -->
<g id="node5" class="node">
<title>4541277056</title>
<ellipse fill="none" stroke="black" cx="99" cy="-18" rx="27" ry="18"/>
<text text-anchor="middle" x="99" y="-12.95" font-family="Times,serif" font-size="14.00">A</text>
</g>
<!-- 4541269280&#45;&gt;4541277056 -->
<g id="edge2" class="edge">
<title>4541269280&#45;&gt;4541277056</title>
<path fill="none" stroke="black" d="M71.35,-72.76C75.58,-64.55 80.81,-54.37 85.58,-45.09"/>
<polygon fill="black" stroke="black" points="88.54,-46.99 90,-36.49 82.32,-43.79 88.54,-46.99"/>
</g>
<!-- 4541273840 -->
<g id="node8" class="node">
<title>4541273840</title>
<ellipse fill="none" stroke="black" cx="207" cy="-90" rx="27" ry="18"/>
<text text-anchor="middle" x="207" y="-84.95" font-family="Times,serif" font-size="14.00">add</text>
</g>
<!-- 4541275712&#45;&gt;4541273840 -->
<g id="edge8" class="edge">
<title>4541275712&#45;&gt;4541273840</title>
<path fill="none" stroke="black" d="M207,-143.7C207,-136.41 207,-127.73 207,-119.54"/>
<polygon fill="black" stroke="black" points="210.5,-119.62 207,-109.62 203.5,-119.62 210.5,-119.62"/>
</g>
<!-- 4541275136 -->
<g id="node11" class="node">
<title>4541275136</title>
<ellipse fill="none" stroke="black" cx="279" cy="-90" rx="27" ry="18"/>
<text text-anchor="middle" x="279" y="-84.95" font-family="Times,serif" font-size="14.00">B</text>
</g>
<!-- 4541275712&#45;&gt;4541275136 -->
<g id="edge9" class="edge">
<title>4541275712&#45;&gt;4541275136</title>
<path fill="none" stroke="black" d="M221.92,-146.5C231.77,-136.92 244.86,-124.19 256.03,-113.34"/>
<polygon fill="black" stroke="black" points="258.29,-116.02 263.02,-106.54 253.41,-111 258.29,-116.02"/>
</g>
<!-- 4541273744 -->
<g id="node9" class="node">
<title>4541273744</title>
<ellipse fill="none" stroke="black" cx="189" cy="-18" rx="27" ry="18"/>
<text text-anchor="middle" x="189" y="-12.95" font-family="Times,serif" font-size="14.00">&#45;2</text>
</g>
<!-- 4541273840&#45;&gt;4541273744 -->
<g id="edge6" class="edge">
<title>4541273840&#45;&gt;4541273744</title>
<path fill="none" stroke="black" d="M202.64,-72.05C200.7,-64.49 198.35,-55.37 196.16,-46.85"/>
<polygon fill="black" stroke="black" points="199.57,-46.07 193.69,-37.25 192.79,-47.81 199.57,-46.07"/>
</g>
<!-- 4541268704 -->
<g id="node10" class="node">
<title>4541268704</title>
<ellipse fill="none" stroke="black" cx="261" cy="-18" rx="27" ry="18"/>
<text text-anchor="middle" x="261" y="-12.95" font-family="Times,serif" font-size="14.00">&#45;4</text>
</g>
<!-- 4541273840&#45;&gt;4541268704 -->
<g id="edge7" class="edge">
<title>4541273840&#45;&gt;4541268704</title>
<path fill="none" stroke="black" d="M218.98,-73.46C225.77,-64.67 234.4,-53.48 242.08,-43.53"/>
<polygon fill="black" stroke="black" points="244.79,-45.75 248.12,-35.69 239.25,-41.47 244.79,-45.75"/>
</g>
</g>
</svg>
