<?xml version="1.0" encoding="UTF-8" standalone="no"?>
<!DOCTYPE svg PUBLIC "-//W3C//DTD SVG 1.1//EN"
 "http://www.w3.org/Graphics/SVG/1.1/DTD/svg11.dtd">
<!-- Generated by graphviz version 9.0.0 (20230911.1827)
 -->
<!-- Pages: 1 -->
<svg width="206pt" height="260pt"
 viewBox="0.00 0.00 206.00 260.00" xmlns="http://www.w3.org/2000/svg" xmlns:xlink="http://www.w3.org/1999/xlink">
<g id="graph0" class="graph" transform="scale(1 1) rotate(0) translate(4 256)">
<polygon fill="white" stroke="none" points="-4,4 -4,-256 202,-256 202,4 -4,4"/>
<!-- 5081062928 -->
<g id="node1" class="node">
<title>5081062928</title>
<ellipse fill="none" stroke="black" cx="63" cy="-234" rx="27" ry="18"/>
<text text-anchor="middle" x="63" y="-228.95" font-family="Times,serif" font-size="14.00">sub</text>
</g>
<!-- 5081064656 -->
<g id="node2" class="node">
<title>5081064656</title>
<ellipse fill="none" stroke="black" cx="27" cy="-162" rx="27" ry="18"/>
<text text-anchor="middle" x="27" y="-156.95" font-family="Times,serif" font-size="14.00">1</text>
</g>
<!-- 5081062928&#45;&gt;5081064656 -->
<g id="edge1" class="edge">
<title>5081062928&#45;&gt;5081064656</title>
<path fill="none" stroke="black" d="M54.65,-216.76C50.42,-208.55 45.19,-198.37 40.42,-189.09"/>
<polygon fill="black" stroke="black" points="43.68,-187.79 36,-180.49 37.46,-190.99 43.68,-187.79"/>
</g>
<!-- 5081057552 -->
<g id="node3" class="node">
<title>5081057552</title>
<ellipse fill="none" stroke="black" cx="99" cy="-162" rx="27" ry="18"/>
<text text-anchor="middle" x="99" y="-156.95" font-family="Times,serif" font-size="14.00">div</text>
</g>
<!-- 5081062928&#45;&gt;5081057552 -->
<g id="edge6" class="edge">
<title>5081062928&#45;&gt;5081057552</title>
<path fill="none" stroke="black" d="M71.35,-216.76C75.58,-208.55 80.81,-198.37 85.58,-189.09"/>
<polygon fill="black" stroke="black" points="88.54,-190.99 90,-180.49 82.32,-187.79 88.54,-190.99"/>
</g>
<!-- 5081058560 -->
<g id="node4" class="node">
<title>5081058560</title>
<ellipse fill="none" stroke="black" cx="63" cy="-90" rx="27" ry="18"/>
<text text-anchor="middle" x="63" y="-84.95" font-family="Times,serif" font-size="14.00">ep</text>
</g>
<!-- 5081057552&#45;&gt;5081058560 -->
<g id="edge2" class="edge">
<title>5081057552&#45;&gt;5081058560</title>
<path fill="none" stroke="black" d="M90.65,-144.76C86.42,-136.55 81.19,-126.37 76.42,-117.09"/>
<polygon fill="black" stroke="black" points="79.68,-115.79 72,-108.49 73.46,-118.99 79.68,-115.79"/>
</g>
<!-- 5081070656 -->
<g id="node5" class="node">
<title>5081070656</title>
<ellipse fill="none" stroke="black" cx="135" cy="-90" rx="27" ry="18"/>
<text text-anchor="middle" x="135" y="-84.95" font-family="Times,serif" font-size="14.00">add</text>
</g>
<!-- 5081057552&#45;&gt;5081070656 -->
<g id="edge5" class="edge">
<title>5081057552&#45;&gt;5081070656</title>
<path fill="none" stroke="black" d="M107.35,-144.76C111.58,-136.55 116.81,-126.37 121.58,-117.09"/>
<polygon fill="black" stroke="black" points="124.54,-118.99 126,-108.49 118.32,-115.79 124.54,-118.99"/>
</g>
<!-- 5081066816 -->
<g id="node6" class="node">
<title>5081066816</title>
<ellipse fill="none" stroke="black" cx="99" cy="-18" rx="27" ry="18"/>
<text text-anchor="middle" x="99" y="-12.95" font-family="Times,serif" font-size="14.00">ef</text>
</g>
<!-- 5081070656&#45;&gt;5081066816 -->
<g id="edge3" class="edge">
<title>5081070656&#45;&gt;5081066816</title>
<path fill="none" stroke="black" d="M126.65,-72.76C122.42,-64.55 117.19,-54.37 112.42,-45.09"/>
<polygon fill="black" stroke="black" points="115.68,-43.79 108,-36.49 109.46,-46.99 115.68,-43.79"/>
</g>
<!-- 5081066576 -->
<g id="node7" class="node">
<title>5081066576</title>
<ellipse fill="none" stroke="black" cx="171" cy="-18" rx="27" ry="18"/>
<text text-anchor="middle" x="171" y="-12.95" font-family="Times,serif" font-size="14.00">ep</text>
</g>
<!-- 5081070656&#45;&gt;5081066576 -->
<g id="edge4" class="edge">
<title>5081070656&#45;&gt;5081066576</title>
<path fill="none" stroke="black" d="M143.35,-72.76C147.58,-64.55 152.81,-54.37 157.58,-45.09"/>
<polygon fill="black" stroke="black" points="160.54,-46.99 162,-36.49 154.32,-43.79 160.54,-46.99"/>
</g>
</g>
</svg>
