<?xml version="1.0" encoding="UTF-8" standalone="no"?>
<!DOCTYPE svg PUBLIC "-//W3C//DTD SVG 1.1//EN"
 "http://www.w3.org/Graphics/SVG/1.1/DTD/svg11.dtd">
<!-- Generated by graphviz version 9.0.0 (20230911.1827)
 -->
<!-- Pages: 1 -->
<svg width="659pt" height="221pt"
 viewBox="0.00 0.00 659.00 221.00" xmlns="http://www.w3.org/2000/svg" xmlns:xlink="http://www.w3.org/1999/xlink">
<g id="graph0" class="graph" transform="scale(1 1) rotate(0) translate(4 217)">
<polygon fill="white" stroke="none" points="-4,4 -4,-217 655,-217 655,4 -4,4"/>
<!-- I0 -->
<g id="node1" class="node">
<title>I0</title>
<ellipse fill="white" stroke="black" cx="153" cy="-18" rx="27" ry="18"/>
<text text-anchor="middle" x="153" y="-12.95" font-family="Times,serif" font-size="14.00">I0</text>
</g>
<!-- H0 -->
<g id="node6" class="node">
<title>H0</title>
<ellipse fill="white" stroke="black" cx="106" cy="-106.5" rx="27" ry="18"/>
<text text-anchor="middle" x="106" y="-101.45" font-family="Times,serif" font-size="14.00">H0</text>
</g>
<!-- I0&#45;&gt;H0 -->
<g id="edge4" class="edge">
<title>I0&#45;&gt;H0</title>
<path fill="none" stroke="black" d="M144.16,-35.27C137.4,-47.71 127.94,-65.12 120.13,-79.49"/>
<polygon fill="black" stroke="black" points="117.22,-77.52 115.52,-87.97 123.37,-80.86 117.22,-77.52"/>
<text text-anchor="middle" x="152.25" y="-57.2" font-family="Times,serif" font-size="14.00">&#45;0.72</text>
</g>
<!-- I0&#45;&gt;H0 -->
<g id="edge5" class="edge">
<title>I0&#45;&gt;H0</title>
<path fill="none" stroke="black" d="M144.16,-35.27C137.4,-47.71 127.94,-65.12 120.13,-79.49"/>
<polygon fill="black" stroke="black" points="117.22,-77.52 115.52,-87.97 123.37,-80.86 117.22,-77.52"/>
<text text-anchor="middle" x="115" y="-57.2" font-family="Times,serif" font-size="14.00">0.51</text>
</g>
<!-- H2 -->
<g id="node8" class="node">
<title>H2</title>
<ellipse fill="white" stroke="black" cx="408" cy="-106.5" rx="27" ry="18"/>
<text text-anchor="middle" x="408" y="-101.45" font-family="Times,serif" font-size="14.00">H2</text>
</g>
<!-- I0&#45;&gt;H2 -->
<g id="edge14" class="edge">
<title>I0&#45;&gt;H2</title>
<path fill="none" stroke="black" d="M176.53,-26.98C221.68,-42.3 320.62,-75.86 373.34,-93.74"/>
<polygon fill="black" stroke="black" points="372.13,-97.03 382.72,-96.92 374.37,-90.4 372.13,-97.03"/>
<text text-anchor="middle" x="317.25" y="-57.2" font-family="Times,serif" font-size="14.00">&#45;0.06</text>
</g>
<!-- I1 -->
<g id="node2" class="node">
<title>I1</title>
<ellipse fill="white" stroke="black" cx="408" cy="-18" rx="27" ry="18"/>
<text text-anchor="middle" x="408" y="-12.95" font-family="Times,serif" font-size="14.00">I1</text>
</g>
<!-- I1&#45;&gt;H2 -->
<g id="edge15" class="edge">
<title>I1&#45;&gt;H2</title>
<path fill="none" stroke="black" d="M408,-36.09C408,-47.74 408,-63.45 408,-76.98"/>
<polygon fill="black" stroke="black" points="404.5,-76.64 408,-86.64 411.5,-76.64 404.5,-76.64"/>
<text text-anchor="middle" x="422.25" y="-57.2" font-family="Times,serif" font-size="14.00">&#45;0.52</text>
</g>
<!-- I2 -->
<g id="node3" class="node">
<title>I2</title>
<ellipse fill="white" stroke="black" cx="480" cy="-18" rx="27" ry="18"/>
<text text-anchor="middle" x="480" y="-12.95" font-family="Times,serif" font-size="14.00">I2</text>
</g>
<!-- I3 -->
<g id="node4" class="node">
<title>I3</title>
<ellipse fill="white" stroke="black" cx="552" cy="-18" rx="27" ry="18"/>
<text text-anchor="middle" x="552" y="-12.95" font-family="Times,serif" font-size="14.00">I3</text>
</g>
<!-- I4 -->
<g id="node5" class="node">
<title>I4</title>
<ellipse fill="white" stroke="black" cx="624" cy="-18" rx="27" ry="18"/>
<text text-anchor="middle" x="624" y="-12.95" font-family="Times,serif" font-size="14.00">I4</text>
</g>
<!-- O0 -->
<g id="node9" class="node">
<title>O0</title>
<ellipse fill="white" stroke="black" cx="95" cy="-195" rx="27" ry="18"/>
<text text-anchor="middle" x="95" y="-189.95" font-family="Times,serif" font-size="14.00">O0</text>
</g>
<!-- H0&#45;&gt;O0 -->
<g id="edge1" class="edge">
<title>H0&#45;&gt;O0</title>
<path fill="none" stroke="black" d="M103.83,-124.59C102.34,-136.24 100.35,-151.95 98.63,-165.48"/>
<polygon fill="black" stroke="black" points="95.19,-164.79 97.4,-175.15 102.13,-165.67 95.19,-164.79"/>
<text text-anchor="middle" x="14.25" y="-145.7" font-family="Times,serif" font-size="14.00">&#45;0.25</text>
</g>
<!-- H0&#45;&gt;O0 -->
<g id="edge2" class="edge">
<title>H0&#45;&gt;O0</title>
<path fill="none" stroke="black" d="M103.83,-124.59C102.34,-136.24 100.35,-151.95 98.63,-165.48"/>
<polygon fill="black" stroke="black" points="95.19,-164.79 97.4,-175.15 102.13,-165.67 95.19,-164.79"/>
<text text-anchor="middle" x="62.88" y="-145.7" font-family="Times,serif" font-size="14.00">&#45;0.2</text>
</g>
<!-- O1 -->
<g id="node10" class="node">
<title>O1</title>
<ellipse fill="white" stroke="black" cx="359" cy="-195" rx="27" ry="18"/>
<text text-anchor="middle" x="359" y="-189.95" font-family="Times,serif" font-size="14.00">O1</text>
</g>
<!-- H0&#45;&gt;O1 -->
<g id="edge3" class="edge">
<title>H0&#45;&gt;O1</title>
<path fill="none" stroke="black" d="M129.8,-115.64C174.84,-131.04 272.67,-164.48 324.76,-182.29"/>
<polygon fill="black" stroke="black" points="323.42,-185.53 334.01,-185.46 325.68,-178.91 323.42,-185.53"/>
<text text-anchor="middle" x="198.62" y="-145.7" font-family="Times,serif" font-size="14.00">0.8</text>
</g>
<!-- H1 -->
<g id="node7" class="node">
<title>H1</title>
<ellipse fill="white" stroke="black" cx="234" cy="-106.5" rx="27" ry="18"/>
<text text-anchor="middle" x="234" y="-101.45" font-family="Times,serif" font-size="14.00">H1</text>
</g>
<!-- H1&#45;&gt;O0 -->
<g id="edge8" class="edge">
<title>H1&#45;&gt;O0</title>
<path fill="none" stroke="black" d="M214.67,-119.53C191.12,-134.18 151.12,-159.07 123.91,-176.01"/>
<polygon fill="black" stroke="black" points="122.09,-173.02 115.45,-181.28 125.79,-178.96 122.09,-173.02"/>
<text text-anchor="middle" x="111.25" y="-145.7" font-family="Times,serif" font-size="14.00">&#45;0.96</text>
</g>
<!-- H1&#45;&gt;O0 -->
<g id="edge9" class="edge">
<title>H1&#45;&gt;O0</title>
<path fill="none" stroke="black" d="M214.67,-119.53C191.12,-134.18 151.12,-159.07 123.91,-176.01"/>
<polygon fill="black" stroke="black" points="122.09,-173.02 115.45,-181.28 125.79,-178.96 122.09,-173.02"/>
<text text-anchor="middle" x="160" y="-145.7" font-family="Times,serif" font-size="14.00">0.29</text>
</g>
<!-- H1&#45;&gt;O0 -->
<g id="edge10" class="edge">
<title>H1&#45;&gt;O0</title>
<path fill="none" stroke="black" d="M214.67,-119.53C191.12,-134.18 151.12,-159.07 123.91,-176.01"/>
<polygon fill="black" stroke="black" points="122.09,-173.02 115.45,-181.28 125.79,-178.96 122.09,-173.02"/>
<text text-anchor="middle" x="230" y="-145.7" font-family="Times,serif" font-size="14.00">0.37</text>
</g>
<!-- H1&#45;&gt;O1 -->
<g id="edge6" class="edge">
<title>H1&#45;&gt;O1</title>
<path fill="none" stroke="black" d="M252.18,-120.08C273.01,-134.49 307.37,-158.27 331.48,-174.96"/>
<polygon fill="black" stroke="black" points="329.34,-177.73 339.56,-180.55 333.33,-171.98 329.34,-177.73"/>
<text text-anchor="middle" x="296.25" y="-145.7" font-family="Times,serif" font-size="14.00">&#45;0.57</text>
</g>
<!-- H1&#45;&gt;O1 -->
<g id="edge7" class="edge">
<title>H1&#45;&gt;O1</title>
<path fill="none" stroke="black" d="M252.18,-120.08C273.01,-134.49 307.37,-158.27 331.48,-174.96"/>
<polygon fill="black" stroke="black" points="329.34,-177.73 339.56,-180.55 333.33,-171.98 329.34,-177.73"/>
<text text-anchor="middle" x="339.25" y="-145.7" font-family="Times,serif" font-size="14.00">&#45;0.04</text>
</g>
<!-- H2&#45;&gt;O1 -->
<g id="edge11" class="edge">
<title>H2&#45;&gt;O1</title>
<path fill="none" stroke="black" d="M398.78,-123.77C391.73,-136.21 381.87,-153.62 373.73,-167.99"/>
<polygon fill="black" stroke="black" points="370.8,-166.06 368.92,-176.49 376.9,-169.51 370.8,-166.06"/>
<text text-anchor="middle" x="398" y="-145.7" font-family="Times,serif" font-size="14.00">0.65</text>
</g>
<!-- H2&#45;&gt;O1 -->
<g id="edge12" class="edge">
<title>H2&#45;&gt;O1</title>
<path fill="none" stroke="black" d="M398.78,-123.77C391.73,-136.21 381.87,-153.62 373.73,-167.99"/>
<polygon fill="black" stroke="black" points="370.8,-166.06 368.92,-176.49 376.9,-169.51 370.8,-166.06"/>
<text text-anchor="middle" x="418.62" y="-145.7" font-family="Times,serif" font-size="14.00">0.9</text>
</g>
<!-- H2&#45;&gt;O1 -->
<g id="edge13" class="edge">
<title>H2&#45;&gt;O1</title>
<path fill="none" stroke="black" d="M398.78,-123.77C391.73,-136.21 381.87,-153.62 373.73,-167.99"/>
<polygon fill="black" stroke="black" points="370.8,-166.06 368.92,-176.49 376.9,-169.51 370.8,-166.06"/>
<text text-anchor="middle" x="445.25" y="-145.7" font-family="Times,serif" font-size="14.00">&#45;0.68</text>
</g>
</g>
</svg>
