<?xml version="1.0" encoding="UTF-8" standalone="no"?>
<!DOCTYPE svg PUBLIC "-//W3C//DTD SVG 1.1//EN"
 "http://www.w3.org/Graphics/SVG/1.1/DTD/svg11.dtd">
<!-- Generated by graphviz version 9.0.0 (20230911.1827)
 -->
<!-- Pages: 1 -->
<svg width="454pt" height="221pt"
 viewBox="0.00 0.00 453.75 221.00" xmlns="http://www.w3.org/2000/svg" xmlns:xlink="http://www.w3.org/1999/xlink">
<g id="graph0" class="graph" transform="scale(1 1) rotate(0) translate(4 217)">
<polygon fill="white" stroke="none" points="-4,4 -4,-217 449.75,-217 449.75,4 -4,4"/>
<!-- I0 -->
<g id="node1" class="node">
<title>I0</title>
<ellipse fill="white" stroke="black" cx="149" cy="-18" rx="27" ry="18"/>
<text text-anchor="middle" x="149" y="-12.95" font-family="Times,serif" font-size="14.00">I0</text>
</g>
<!-- H0 -->
<g id="node6" class="node">
<title>H0</title>
<ellipse fill="white" stroke="black" cx="130" cy="-106.5" rx="27" ry="18"/>
<text text-anchor="middle" x="130" y="-101.45" font-family="Times,serif" font-size="14.00">H0</text>
</g>
<!-- I0&#45;&gt;H0 -->
<g id="edge1" class="edge">
<title>I0&#45;&gt;H0</title>
<path fill="none" stroke="black" d="M145.25,-36.09C142.67,-47.82 139.19,-63.66 136.21,-77.25"/>
<polygon fill="black" stroke="black" points="132.8,-76.45 134.07,-86.97 139.63,-77.95 132.8,-76.45"/>
<text text-anchor="middle" x="70" y="-57.2" font-family="Times,serif" font-size="14.00">0.38</text>
</g>
<!-- H1 -->
<g id="node7" class="node">
<title>H1</title>
<ellipse fill="white" stroke="black" cx="283" cy="-106.5" rx="27" ry="18"/>
<text text-anchor="middle" x="283" y="-101.45" font-family="Times,serif" font-size="14.00">H1</text>
</g>
<!-- I0&#45;&gt;H1 -->
<g id="edge2" class="edge">
<title>I0&#45;&gt;H1</title>
<path fill="none" stroke="black" d="M167.91,-31.21C190.56,-45.83 228.7,-70.45 254.82,-87.31"/>
<polygon fill="black" stroke="black" points="252.61,-90.05 262.91,-92.53 256.41,-84.17 252.61,-90.05"/>
<text text-anchor="middle" x="264" y="-57.2" font-family="Times,serif" font-size="14.00">0.32</text>
</g>
<!-- I1 -->
<g id="node2" class="node">
<title>I1</title>
<ellipse fill="white" stroke="black" cx="27" cy="-18" rx="27" ry="18"/>
<text text-anchor="middle" x="27" y="-12.95" font-family="Times,serif" font-size="14.00">I1</text>
</g>
<!-- I1&#45;&gt;H0 -->
<g id="edge3" class="edge">
<title>I1&#45;&gt;H0</title>
<path fill="none" stroke="black" d="M43.09,-32.52C59.7,-46.46 85.83,-68.4 105.1,-84.59"/>
<polygon fill="black" stroke="black" points="102.61,-87.07 112.52,-90.82 107.11,-81.71 102.61,-87.07"/>
<text text-anchor="middle" x="40.25" y="-57.2" font-family="Times,serif" font-size="14.00">&#45;0.16</text>
</g>
<!-- I1&#45;&gt;H1 -->
<g id="edge4" class="edge">
<title>I1&#45;&gt;H1</title>
<path fill="none" stroke="black" d="M50.62,-26.98C95.94,-42.3 195.28,-75.86 248.2,-93.74"/>
<polygon fill="black" stroke="black" points="247.03,-97.04 257.63,-96.93 249.27,-90.41 247.03,-97.04"/>
<text text-anchor="middle" x="220.25" y="-57.2" font-family="Times,serif" font-size="14.00">&#45;0.17</text>
</g>
<!-- I2 -->
<g id="node3" class="node">
<title>I2</title>
<ellipse fill="white" stroke="black" cx="331" cy="-18" rx="27" ry="18"/>
<text text-anchor="middle" x="331" y="-12.95" font-family="Times,serif" font-size="14.00">I2</text>
</g>
<!-- I2&#45;&gt;H0 -->
<g id="edge5" class="edge">
<title>I2&#45;&gt;H0</title>
<path fill="none" stroke="black" d="M308.72,-28.59C273.33,-43.82 204.07,-73.62 162.94,-91.33"/>
<polygon fill="black" stroke="black" points="161.57,-88.1 153.77,-95.27 164.34,-94.53 161.57,-88.1"/>
<text text-anchor="middle" x="172.25" y="-57.2" font-family="Times,serif" font-size="14.00">&#45;0.44</text>
</g>
<!-- I2&#45;&gt;H1 -->
<g id="edge6" class="edge">
<title>I2&#45;&gt;H1</title>
<path fill="none" stroke="black" d="M321.97,-35.27C315.07,-47.71 305.41,-65.12 297.43,-79.49"/>
<polygon fill="black" stroke="black" points="294.51,-77.54 292.72,-87.98 300.63,-80.93 294.51,-77.54"/>
<text text-anchor="middle" x="326" y="-57.2" font-family="Times,serif" font-size="14.00">0.62</text>
</g>
<!-- I3 -->
<g id="node4" class="node">
<title>I3</title>
<ellipse fill="white" stroke="black" cx="246" cy="-18" rx="27" ry="18"/>
<text text-anchor="middle" x="246" y="-12.95" font-family="Times,serif" font-size="14.00">I3</text>
</g>
<!-- I3&#45;&gt;H0 -->
<g id="edge7" class="edge">
<title>I3&#45;&gt;H0</title>
<path fill="none" stroke="black" d="M228.38,-32.14C209.28,-46.38 178.57,-69.28 156.55,-85.7"/>
<polygon fill="black" stroke="black" points="154.54,-82.83 148.62,-91.62 158.73,-88.45 154.54,-82.83"/>
<text text-anchor="middle" x="120.25" y="-57.2" font-family="Times,serif" font-size="14.00">&#45;0.08</text>
</g>
<!-- I3&#45;&gt;H1 -->
<g id="edge8" class="edge">
<title>I3&#45;&gt;H1</title>
<path fill="none" stroke="black" d="M253.13,-35.68C258.3,-47.76 265.41,-64.37 271.39,-78.36"/>
<polygon fill="black" stroke="black" points="268.14,-79.66 275.29,-87.48 274.58,-76.91 268.14,-79.66"/>
<text text-anchor="middle" x="293.62" y="-57.2" font-family="Times,serif" font-size="14.00">0.1</text>
</g>
<!-- I4 -->
<g id="node5" class="node">
<title>I4</title>
<ellipse fill="white" stroke="black" cx="409" cy="-18" rx="27" ry="18"/>
<text text-anchor="middle" x="409" y="-12.95" font-family="Times,serif" font-size="14.00">I4</text>
</g>
<!-- I4&#45;&gt;H0 -->
<g id="edge9" class="edge">
<title>I4&#45;&gt;H0</title>
<path fill="none" stroke="black" d="M384.73,-26.52C335.14,-41.9 222.04,-76.96 164.71,-94.74"/>
<polygon fill="black" stroke="black" points="163.98,-91.3 155.46,-97.61 166.05,-97.99 163.98,-91.3"/>
<text text-anchor="middle" x="376.25" y="-57.2" font-family="Times,serif" font-size="14.00">&#45;0.22</text>
</g>
<!-- I4&#45;&gt;H1 -->
<g id="edge10" class="edge">
<title>I4&#45;&gt;H1</title>
<path fill="none" stroke="black" d="M390.68,-31.58C369.68,-45.99 335.05,-69.77 310.74,-86.46"/>
<polygon fill="black" stroke="black" points="308.85,-83.51 302.59,-92.05 312.82,-89.28 308.85,-83.51"/>
<text text-anchor="middle" x="434.88" y="-57.2" font-family="Times,serif" font-size="14.00">&#45;0.1</text>
</g>
<!-- O0 -->
<g id="node8" class="node">
<title>O0</title>
<ellipse fill="white" stroke="black" cx="182" cy="-195" rx="27" ry="18"/>
<text text-anchor="middle" x="182" y="-189.95" font-family="Times,serif" font-size="14.00">O0</text>
</g>
<!-- H0&#45;&gt;O0 -->
<g id="edge11" class="edge">
<title>H0&#45;&gt;O0</title>
<path fill="none" stroke="black" d="M139.78,-123.77C147.26,-136.21 157.73,-153.62 166.36,-167.99"/>
<polygon fill="black" stroke="black" points="163.33,-169.74 171.48,-176.51 169.33,-166.13 163.33,-169.74"/>
<text text-anchor="middle" x="175.25" y="-145.7" font-family="Times,serif" font-size="14.00">&#45;0.55</text>
</g>
<!-- H1&#45;&gt;O0 -->
<g id="edge12" class="edge">
<title>H1&#45;&gt;O0</title>
<path fill="none" stroke="black" d="M266.77,-121.4C250.58,-135.27 225.47,-156.77 206.78,-172.78"/>
<polygon fill="black" stroke="black" points="204.66,-169.99 199.34,-179.15 209.21,-175.31 204.66,-169.99"/>
<text text-anchor="middle" x="250.62" y="-145.7" font-family="Times,serif" font-size="14.00">0.2</text>
</g>
</g>
</svg>
