<?xml version="1.0" encoding="UTF-8" standalone="no"?>
<!DOCTYPE svg PUBLIC "-//W3C//DTD SVG 1.1//EN"
 "http://www.w3.org/Graphics/SVG/1.1/DTD/svg11.dtd">
<!-- Generated by graphviz version 9.0.0 (20230911.1827)
 -->
<!-- Pages: 1 -->
<svg width="478pt" height="221pt"
 viewBox="0.00 0.00 478.00 221.00" xmlns="http://www.w3.org/2000/svg" xmlns:xlink="http://www.w3.org/1999/xlink">
<g id="graph0" class="graph" transform="scale(1 1) rotate(0) translate(4 217)">
<polygon fill="white" stroke="none" points="-4,4 -4,-217 474,-217 474,4 -4,4"/>
<!-- I0 -->
<g id="node1" class="node">
<title>I0</title>
<ellipse fill="white" stroke="black" cx="27" cy="-18" rx="27" ry="18"/>
<text text-anchor="middle" x="27" y="-12.95" font-family="Times,serif" font-size="14.00">I0</text>
</g>
<!-- I1 -->
<g id="node2" class="node">
<title>I1</title>
<ellipse fill="white" stroke="black" cx="99" cy="-18" rx="27" ry="18"/>
<text text-anchor="middle" x="99" y="-12.95" font-family="Times,serif" font-size="14.00">I1</text>
</g>
<!-- H0 -->
<g id="node6" class="node">
<title>H0</title>
<ellipse fill="white" stroke="black" cx="146" cy="-106.5" rx="27" ry="18"/>
<text text-anchor="middle" x="146" y="-101.45" font-family="Times,serif" font-size="14.00">H0</text>
</g>
<!-- I1&#45;&gt;H0 -->
<g id="edge5" class="edge">
<title>I1&#45;&gt;H0</title>
<path fill="none" stroke="black" d="M107.84,-35.27C114.6,-47.71 124.06,-65.12 131.87,-79.49"/>
<polygon fill="black" stroke="black" points="128.63,-80.86 136.48,-87.97 134.78,-77.52 128.63,-80.86"/>
<text text-anchor="middle" x="112" y="-57.2" font-family="Times,serif" font-size="14.00">0.65</text>
</g>
<!-- I2 -->
<g id="node3" class="node">
<title>I2</title>
<ellipse fill="white" stroke="black" cx="443" cy="-18" rx="27" ry="18"/>
<text text-anchor="middle" x="443" y="-12.95" font-family="Times,serif" font-size="14.00">I2</text>
</g>
<!-- H2 -->
<g id="node8" class="node">
<title>H2</title>
<ellipse fill="white" stroke="black" cx="396" cy="-106.5" rx="27" ry="18"/>
<text text-anchor="middle" x="396" y="-101.45" font-family="Times,serif" font-size="14.00">H2</text>
</g>
<!-- I2&#45;&gt;H2 -->
<g id="edge11" class="edge">
<title>I2&#45;&gt;H2</title>
<path fill="none" stroke="black" d="M434.16,-35.27C427.4,-47.71 417.94,-65.12 410.13,-79.49"/>
<polygon fill="black" stroke="black" points="407.22,-77.52 405.52,-87.97 413.37,-80.86 407.22,-77.52"/>
<text text-anchor="middle" x="435" y="-57.2" font-family="Times,serif" font-size="14.00">0.78</text>
</g>
<!-- I3 -->
<g id="node4" class="node">
<title>I3</title>
<ellipse fill="white" stroke="black" cx="224" cy="-18" rx="27" ry="18"/>
<text text-anchor="middle" x="224" y="-12.95" font-family="Times,serif" font-size="14.00">I3</text>
</g>
<!-- I3&#45;&gt;H0 -->
<g id="edge3" class="edge">
<title>I3&#45;&gt;H0</title>
<path fill="none" stroke="black" d="M210.41,-34.07C198.45,-47.34 180.82,-66.88 167.03,-82.17"/>
<polygon fill="black" stroke="black" points="164.54,-79.71 160.44,-89.48 169.74,-84.4 164.54,-79.71"/>
<text text-anchor="middle" x="162.25" y="-57.2" font-family="Times,serif" font-size="14.00">&#45;0.68</text>
</g>
<!-- I3&#45;&gt;H0 -->
<g id="edge4" class="edge">
<title>I3&#45;&gt;H0</title>
<path fill="none" stroke="black" d="M210.41,-34.07C198.45,-47.34 180.82,-66.88 167.03,-82.17"/>
<polygon fill="black" stroke="black" points="164.54,-79.71 160.44,-89.48 169.74,-84.4 164.54,-79.71"/>
<text text-anchor="middle" x="206.25" y="-57.2" font-family="Times,serif" font-size="14.00">&#45;0.06</text>
</g>
<!-- H1 -->
<g id="node7" class="node">
<title>H1</title>
<ellipse fill="white" stroke="black" cx="277" cy="-106.5" rx="27" ry="18"/>
<text text-anchor="middle" x="277" y="-101.45" font-family="Times,serif" font-size="14.00">H1</text>
</g>
<!-- I3&#45;&gt;H1 -->
<g id="edge9" class="edge">
<title>I3&#45;&gt;H1</title>
<path fill="none" stroke="black" d="M233.72,-34.87C241.44,-47.47 252.39,-65.34 261.35,-79.95"/>
<polygon fill="black" stroke="black" points="258.16,-81.45 266.37,-88.15 264.13,-77.8 258.16,-81.45"/>
<text text-anchor="middle" x="263" y="-57.2" font-family="Times,serif" font-size="14.00">0.57</text>
</g>
<!-- I3&#45;&gt;H2 -->
<g id="edge15" class="edge">
<title>I3&#45;&gt;H2</title>
<path fill="none" stroke="black" d="M245.09,-29.61C275.01,-44.65 329.98,-72.3 364.67,-89.74"/>
<polygon fill="black" stroke="black" points="362.88,-92.76 373.38,-94.13 366.02,-86.51 362.88,-92.76"/>
<text text-anchor="middle" x="309.25" y="-57.2" font-family="Times,serif" font-size="14.00">&#45;0.14</text>
</g>
<!-- I4 -->
<g id="node5" class="node">
<title>I4</title>
<ellipse fill="white" stroke="black" cx="360" cy="-18" rx="27" ry="18"/>
<text text-anchor="middle" x="360" y="-12.95" font-family="Times,serif" font-size="14.00">I4</text>
</g>
<!-- I4&#45;&gt;H1 -->
<g id="edge10" class="edge">
<title>I4&#45;&gt;H1</title>
<path fill="none" stroke="black" d="M345.92,-33.67C333.04,-47.09 313.79,-67.16 298.9,-82.67"/>
<polygon fill="black" stroke="black" points="296.59,-80.02 292.2,-89.66 301.65,-84.87 296.59,-80.02"/>
<text text-anchor="middle" x="349" y="-57.2" font-family="Times,serif" font-size="14.00">0.95</text>
</g>
<!-- I4&#45;&gt;H2 -->
<g id="edge14" class="edge">
<title>I4&#45;&gt;H2</title>
<path fill="none" stroke="black" d="M366.94,-35.68C371.97,-47.76 378.88,-64.37 384.7,-78.36"/>
<polygon fill="black" stroke="black" points="381.42,-79.59 388.5,-87.48 387.89,-76.9 381.42,-79.59"/>
<text text-anchor="middle" x="393" y="-57.2" font-family="Times,serif" font-size="14.00">0.58</text>
</g>
<!-- O0 -->
<g id="node9" class="node">
<title>O0</title>
<ellipse fill="white" stroke="black" cx="277" cy="-195" rx="27" ry="18"/>
<text text-anchor="middle" x="277" y="-189.95" font-family="Times,serif" font-size="14.00">O0</text>
</g>
<!-- H0&#45;&gt;O0 -->
<g id="edge1" class="edge">
<title>H0&#45;&gt;O0</title>
<path fill="none" stroke="black" d="M164.77,-119.89C186.75,-134.41 223.39,-158.6 248.8,-175.38"/>
<polygon fill="black" stroke="black" points="246.73,-178.21 257,-180.8 250.59,-172.36 246.73,-178.21"/>
<text text-anchor="middle" x="211" y="-145.7" font-family="Times,serif" font-size="14.00">0.16</text>
</g>
<!-- H0&#45;&gt;O0 -->
<g id="edge2" class="edge">
<title>H0&#45;&gt;O0</title>
<path fill="none" stroke="black" d="M164.77,-119.89C186.75,-134.41 223.39,-158.6 248.8,-175.38"/>
<polygon fill="black" stroke="black" points="246.73,-178.21 257,-180.8 250.59,-172.36 246.73,-178.21"/>
<text text-anchor="middle" x="168" y="-145.7" font-family="Times,serif" font-size="14.00">0.31</text>
</g>
<!-- H1&#45;&gt;O0 -->
<g id="edge6" class="edge">
<title>H1&#45;&gt;O0</title>
<path fill="none" stroke="black" d="M277,-124.59C277,-136.24 277,-151.95 277,-165.48"/>
<polygon fill="black" stroke="black" points="273.5,-165.14 277,-175.14 280.5,-165.14 273.5,-165.14"/>
<text text-anchor="middle" x="241.25" y="-145.7" font-family="Times,serif" font-size="14.00">&#45;0.21</text>
</g>
<!-- H1&#45;&gt;O0 -->
<g id="edge7" class="edge">
<title>H1&#45;&gt;O0</title>
<path fill="none" stroke="black" d="M277,-124.59C277,-136.24 277,-151.95 277,-165.48"/>
<polygon fill="black" stroke="black" points="273.5,-165.14 277,-175.14 280.5,-165.14 273.5,-165.14"/>
<text text-anchor="middle" x="285.62" y="-145.7" font-family="Times,serif" font-size="14.00">0.4</text>
</g>
<!-- H1&#45;&gt;O0 -->
<g id="edge8" class="edge">
<title>H1&#45;&gt;O0</title>
<path fill="none" stroke="black" d="M277,-124.59C277,-136.24 277,-151.95 277,-165.48"/>
<polygon fill="black" stroke="black" points="273.5,-165.14 277,-175.14 280.5,-165.14 273.5,-165.14"/>
<text text-anchor="middle" x="307" y="-145.7" font-family="Times,serif" font-size="14.00">0.54</text>
</g>
<!-- H2&#45;&gt;O0 -->
<g id="edge12" class="edge">
<title>H2&#45;&gt;O0</title>
<path fill="none" stroke="black" d="M378.18,-120.45C358.44,-134.8 326.39,-158.1 303.66,-174.62"/>
<polygon fill="black" stroke="black" points="301.8,-171.64 295.77,-180.35 305.92,-177.31 301.8,-171.64"/>
<text text-anchor="middle" x="405.25" y="-145.7" font-family="Times,serif" font-size="14.00">&#45;0.27</text>
</g>
<!-- H2&#45;&gt;O0 -->
<g id="edge13" class="edge">
<title>H2&#45;&gt;O0</title>
<path fill="none" stroke="black" d="M378.18,-120.45C358.44,-134.8 326.39,-158.1 303.66,-174.62"/>
<polygon fill="black" stroke="black" points="301.8,-171.64 295.77,-180.35 305.92,-177.31 301.8,-171.64"/>
<text text-anchor="middle" x="360" y="-145.7" font-family="Times,serif" font-size="14.00">0.09</text>
</g>
<!-- O1 -->
<g id="node10" class="node">
<title>O1</title>
<ellipse fill="white" stroke="black" cx="349" cy="-195" rx="27" ry="18"/>
<text text-anchor="middle" x="349" y="-189.95" font-family="Times,serif" font-size="14.00">O1</text>
</g>
</g>
</svg>
