<?xml version="1.0" encoding="UTF-8" standalone="no"?>
<!DOCTYPE svg PUBLIC "-//W3C//DTD SVG 1.1//EN"
 "http://www.w3.org/Graphics/SVG/1.1/DTD/svg11.dtd">
<!-- Generated by graphviz version 9.0.0 (20230911.1827)
 -->
<!-- Pages: 1 -->
<svg width="692pt" height="221pt"
 viewBox="0.00 0.00 691.50 221.00" xmlns="http://www.w3.org/2000/svg" xmlns:xlink="http://www.w3.org/1999/xlink">
<g id="graph0" class="graph" transform="scale(1 1) rotate(0) translate(4 217)">
<polygon fill="white" stroke="none" points="-4,4 -4,-217 687.5,-217 687.5,4 -4,4"/>
<!-- I0 -->
<g id="node1" class="node">
<title>I0</title>
<ellipse fill="white" stroke="black" cx="236" cy="-18" rx="27" ry="18"/>
<text text-anchor="middle" x="236" y="-12.95" font-family="Times,serif" font-size="14.00">I0</text>
</g>
<!-- H0 -->
<g id="node6" class="node">
<title>H0</title>
<ellipse fill="white" stroke="black" cx="295" cy="-106.5" rx="27" ry="18"/>
<text text-anchor="middle" x="295" y="-101.45" font-family="Times,serif" font-size="14.00">H0</text>
</g>
<!-- I0&#45;&gt;H0 -->
<g id="edge1" class="edge">
<title>I0&#45;&gt;H0</title>
<path fill="none" stroke="black" d="M246.82,-34.87C255.47,-47.55 267.76,-65.56 277.76,-80.23"/>
<polygon fill="black" stroke="black" points="274.87,-82.2 283.39,-88.48 280.65,-78.25 274.87,-82.2"/>
<text text-anchor="middle" x="281.88" y="-57.2" font-family="Times,serif" font-size="14.00">&#45;0.3</text>
</g>
<!-- H1 -->
<g id="node7" class="node">
<title>H1</title>
<ellipse fill="white" stroke="black" cx="513" cy="-106.5" rx="27" ry="18"/>
<text text-anchor="middle" x="513" y="-101.45" font-family="Times,serif" font-size="14.00">H1</text>
</g>
<!-- I0&#45;&gt;H1 -->
<g id="edge2" class="edge">
<title>I0&#45;&gt;H1</title>
<path fill="none" stroke="black" d="M260.1,-26.52C309.21,-41.86 421.05,-76.79 478.11,-94.61"/>
<polygon fill="black" stroke="black" points="476.73,-97.84 487.32,-97.48 478.81,-91.16 476.73,-97.84"/>
<text text-anchor="middle" x="489.25" y="-57.2" font-family="Times,serif" font-size="14.00">&#45;0.46</text>
</g>
<!-- H2 -->
<g id="node8" class="node">
<title>H2</title>
<ellipse fill="white" stroke="black" cx="130" cy="-106.5" rx="27" ry="18"/>
<text text-anchor="middle" x="130" y="-101.45" font-family="Times,serif" font-size="14.00">H2</text>
</g>
<!-- I0&#45;&gt;H2 -->
<g id="edge3" class="edge">
<title>I0&#45;&gt;H2</title>
<path fill="none" stroke="black" d="M219.44,-32.52C202.25,-46.54 175.14,-68.66 155.27,-84.88"/>
<polygon fill="black" stroke="black" points="153.15,-82.09 147.62,-91.12 157.58,-87.51 153.15,-82.09"/>
<text text-anchor="middle" x="68.25" y="-57.2" font-family="Times,serif" font-size="14.00">&#45;0.83</text>
</g>
<!-- I1 -->
<g id="node2" class="node">
<title>I1</title>
<ellipse fill="white" stroke="black" cx="380" cy="-18" rx="27" ry="18"/>
<text text-anchor="middle" x="380" y="-12.95" font-family="Times,serif" font-size="14.00">I1</text>
</g>
<!-- I1&#45;&gt;H0 -->
<g id="edge4" class="edge">
<title>I1&#45;&gt;H0</title>
<path fill="none" stroke="black" d="M365.58,-33.67C352.31,-47.18 332.44,-67.4 317.15,-82.96"/>
<polygon fill="black" stroke="black" points="314.78,-80.38 310.27,-89.96 319.77,-85.28 314.78,-80.38"/>
<text text-anchor="middle" x="355" y="-57.2" font-family="Times,serif" font-size="14.00">0.14</text>
</g>
<!-- I1&#45;&gt;H1 -->
<g id="edge5" class="edge">
<title>I1&#45;&gt;H1</title>
<path fill="none" stroke="black" d="M398.77,-31.21C421.15,-45.76 458.77,-70.23 484.68,-87.08"/>
<polygon fill="black" stroke="black" points="482.76,-90.01 493.05,-92.53 486.58,-84.14 482.76,-90.01"/>
<text text-anchor="middle" x="572.25" y="-57.2" font-family="Times,serif" font-size="14.00">&#45;0.21</text>
</g>
<!-- I1&#45;&gt;H2 -->
<g id="edge6" class="edge">
<title>I1&#45;&gt;H2</title>
<path fill="none" stroke="black" d="M356.48,-27.14C312.09,-42.5 215.8,-75.81 164.23,-93.66"/>
<polygon fill="black" stroke="black" points="163.38,-90.25 155.07,-96.83 165.66,-96.86 163.38,-90.25"/>
<text text-anchor="middle" x="197" y="-57.2" font-family="Times,serif" font-size="14.00">0.41</text>
</g>
<!-- I2 -->
<g id="node3" class="node">
<title>I2</title>
<ellipse fill="white" stroke="black" cx="164" cy="-18" rx="27" ry="18"/>
<text text-anchor="middle" x="164" y="-12.95" font-family="Times,serif" font-size="14.00">I2</text>
</g>
<!-- I2&#45;&gt;H0 -->
<g id="edge7" class="edge">
<title>I2&#45;&gt;H0</title>
<path fill="none" stroke="black" d="M182.77,-31.39C204.75,-45.91 241.39,-70.1 266.8,-86.88"/>
<polygon fill="black" stroke="black" points="264.73,-89.71 275,-92.3 268.59,-83.86 264.73,-89.71"/>
<text text-anchor="middle" x="245" y="-57.2" font-family="Times,serif" font-size="14.00">0.84</text>
</g>
<!-- I2&#45;&gt;H1 -->
<g id="edge8" class="edge">
<title>I2&#45;&gt;H1</title>
<path fill="none" stroke="black" d="M189.1,-25.22C250.1,-40.34 406.3,-79.05 477.12,-96.61"/>
<polygon fill="black" stroke="black" points="476.11,-99.96 486.66,-98.97 477.79,-93.17 476.11,-99.96"/>
<text text-anchor="middle" x="446.62" y="-57.2" font-family="Times,serif" font-size="14.00">0.9</text>
</g>
<!-- I2&#45;&gt;H2 -->
<g id="edge9" class="edge">
<title>I2&#45;&gt;H2</title>
<path fill="none" stroke="black" d="M157.44,-35.68C152.72,-47.69 146.25,-64.16 140.78,-78.09"/>
<polygon fill="black" stroke="black" points="137.61,-76.58 137.21,-87.17 144.12,-79.14 137.61,-76.58"/>
<text text-anchor="middle" x="16.25" y="-57.2" font-family="Times,serif" font-size="14.00">&#45;0.93</text>
</g>
<!-- I3 -->
<g id="node4" class="node">
<title>I3</title>
<ellipse fill="white" stroke="black" cx="308" cy="-18" rx="27" ry="18"/>
<text text-anchor="middle" x="308" y="-12.95" font-family="Times,serif" font-size="14.00">I3</text>
</g>
<!-- I3&#45;&gt;H0 -->
<g id="edge10" class="edge">
<title>I3&#45;&gt;H0</title>
<path fill="none" stroke="black" d="M305.43,-36.09C303.68,-47.74 301.32,-63.45 299.29,-76.98"/>
<polygon fill="black" stroke="black" points="295.86,-76.24 297.83,-86.65 302.78,-77.28 295.86,-76.24"/>
<text text-anchor="middle" x="308" y="-57.2" font-family="Times,serif" font-size="14.00">0.63</text>
</g>
<!-- I3&#45;&gt;H1 -->
<g id="edge11" class="edge">
<title>I3&#45;&gt;H1</title>
<path fill="none" stroke="black" d="M330.33,-28.42C366.53,-43.7 438.19,-73.94 480.2,-91.66"/>
<polygon fill="black" stroke="black" points="478.73,-94.84 489.3,-95.5 481.45,-88.39 478.73,-94.84"/>
<text text-anchor="middle" x="523" y="-57.2" font-family="Times,serif" font-size="14.00">0.26</text>
</g>
<!-- I3&#45;&gt;H2 -->
<g id="edge12" class="edge">
<title>I3&#45;&gt;H2</title>
<path fill="none" stroke="black" d="M286.53,-29.43C255.39,-44.57 197.5,-72.7 161.52,-90.18"/>
<polygon fill="black" stroke="black" points="160.37,-86.85 152.91,-94.37 163.43,-93.14 160.37,-86.85"/>
<text text-anchor="middle" x="120.25" y="-57.2" font-family="Times,serif" font-size="14.00">&#45;0.86</text>
</g>
<!-- I4 -->
<g id="node5" class="node">
<title>I4</title>
<ellipse fill="white" stroke="black" cx="632" cy="-18" rx="27" ry="18"/>
<text text-anchor="middle" x="632" y="-12.95" font-family="Times,serif" font-size="14.00">I4</text>
</g>
<!-- I4&#45;&gt;H0 -->
<g id="edge13" class="edge">
<title>I4&#45;&gt;H0</title>
<path fill="none" stroke="black" d="M606.95,-25.43C547.82,-40.61 399.46,-78.69 330.84,-96.3"/>
<polygon fill="black" stroke="black" points="330.04,-92.89 321.23,-98.77 331.78,-99.67 330.04,-92.89"/>
<text text-anchor="middle" x="613.88" y="-57.2" font-family="Times,serif" font-size="14.00">&#45;0.2</text>
</g>
<!-- I4&#45;&gt;H1 -->
<g id="edge14" class="edge">
<title>I4&#45;&gt;H1</title>
<path fill="none" stroke="black" d="M614.18,-31.95C594.44,-46.3 562.39,-69.6 539.66,-86.12"/>
<polygon fill="black" stroke="black" points="537.8,-83.14 531.77,-91.85 541.92,-88.81 537.8,-83.14"/>
<text text-anchor="middle" x="665.88" y="-57.2" font-family="Times,serif" font-size="14.00">&#45;0.8</text>
</g>
<!-- I4&#45;&gt;H2 -->
<g id="edge15" class="edge">
<title>I4&#45;&gt;H2</title>
<path fill="none" stroke="black" d="M606.07,-23.47C523.19,-37.75 264.51,-82.32 167.37,-99.06"/>
<polygon fill="black" stroke="black" points="166.83,-95.6 157.57,-100.75 168.02,-102.5 166.83,-95.6"/>
<text text-anchor="middle" x="401.25" y="-57.2" font-family="Times,serif" font-size="14.00">&#45;0.05</text>
</g>
<!-- O0 -->
<g id="node9" class="node">
<title>O0</title>
<ellipse fill="white" stroke="black" cx="144" cy="-195" rx="27" ry="18"/>
<text text-anchor="middle" x="144" y="-189.95" font-family="Times,serif" font-size="14.00">O0</text>
</g>
<!-- H0&#45;&gt;O0 -->
<g id="edge16" class="edge">
<title>H0&#45;&gt;O0</title>
<path fill="none" stroke="black" d="M274.95,-118.99C249.11,-133.79 203.97,-159.64 174.03,-176.79"/>
<polygon fill="black" stroke="black" points="172.39,-173.71 165.45,-181.71 175.86,-179.78 172.39,-173.71"/>
<text text-anchor="middle" x="160.25" y="-145.7" font-family="Times,serif" font-size="14.00">&#45;0.04</text>
</g>
<!-- O1 -->
<g id="node10" class="node">
<title>O1</title>
<ellipse fill="white" stroke="black" cx="50" cy="-195" rx="27" ry="18"/>
<text text-anchor="middle" x="50" y="-189.95" font-family="Times,serif" font-size="14.00">O1</text>
</g>
<!-- H0&#45;&gt;O1 -->
<g id="edge17" class="edge">
<title>H0&#45;&gt;O1</title>
<path fill="none" stroke="black" d="M271.51,-115.79C227.97,-131.17 134.6,-164.13 84.1,-181.96"/>
<polygon fill="black" stroke="black" points="83.11,-178.6 74.85,-185.23 85.44,-185.2 83.11,-178.6"/>
<text text-anchor="middle" x="82" y="-145.7" font-family="Times,serif" font-size="14.00">0.52</text>
</g>
<!-- O2 -->
<g id="node11" class="node">
<title>O2</title>
<ellipse fill="white" stroke="black" cx="446" cy="-195" rx="27" ry="18"/>
<text text-anchor="middle" x="446" y="-189.95" font-family="Times,serif" font-size="14.00">O2</text>
</g>
<!-- H0&#45;&gt;O2 -->
<g id="edge18" class="edge">
<title>H0&#45;&gt;O2</title>
<path fill="none" stroke="black" d="M315.05,-118.99C340.89,-133.79 386.03,-159.64 415.97,-176.79"/>
<polygon fill="black" stroke="black" points="414.14,-179.78 424.55,-181.71 417.61,-173.71 414.14,-179.78"/>
<text text-anchor="middle" x="443" y="-145.7" font-family="Times,serif" font-size="14.00">0.36</text>
</g>
<!-- O3 -->
<g id="node12" class="node">
<title>O3</title>
<ellipse fill="white" stroke="black" cx="295" cy="-195" rx="27" ry="18"/>
<text text-anchor="middle" x="295" y="-189.95" font-family="Times,serif" font-size="14.00">O3</text>
</g>
<!-- H0&#45;&gt;O3 -->
<g id="edge19" class="edge">
<title>H0&#45;&gt;O3</title>
<path fill="none" stroke="black" d="M295,-124.59C295,-136.24 295,-151.95 295,-165.48"/>
<polygon fill="black" stroke="black" points="291.5,-165.14 295,-175.14 298.5,-165.14 291.5,-165.14"/>
<text text-anchor="middle" x="309.25" y="-145.7" font-family="Times,serif" font-size="14.00">&#45;0.43</text>
</g>
<!-- O4 -->
<g id="node13" class="node">
<title>O4</title>
<ellipse fill="white" stroke="black" cx="592" cy="-195" rx="27" ry="18"/>
<text text-anchor="middle" x="592" y="-189.95" font-family="Times,serif" font-size="14.00">O4</text>
</g>
<!-- H0&#45;&gt;O4 -->
<g id="edge20" class="edge">
<title>H0&#45;&gt;O4</title>
<path fill="none" stroke="black" d="M319.56,-114.65C372.04,-129.94 495.33,-165.85 556.41,-183.64"/>
<polygon fill="black" stroke="black" points="555.38,-186.98 565.96,-186.42 557.34,-180.26 555.38,-186.98"/>
<text text-anchor="middle" x="590.25" y="-145.7" font-family="Times,serif" font-size="14.00">&#45;0.76</text>
</g>
<!-- H1&#45;&gt;O0 -->
<g id="edge21" class="edge">
<title>H1&#45;&gt;O0</title>
<path fill="none" stroke="black" d="M487.64,-113.45C423.5,-128.48 254.64,-168.07 180.16,-185.52"/>
<polygon fill="black" stroke="black" points="179.46,-182.09 170.53,-187.78 181.06,-188.91 179.46,-182.09"/>
<text text-anchor="middle" x="359.25" y="-145.7" font-family="Times,serif" font-size="14.00">&#45;0.52</text>
</g>
<!-- H1&#45;&gt;O1 -->
<g id="edge22" class="edge">
<title>H1&#45;&gt;O1</title>
<path fill="none" stroke="black" d="M487.12,-112.34C409.39,-126.86 177.85,-170.11 87.09,-187.07"/>
<polygon fill="black" stroke="black" points="86.66,-183.59 77.48,-188.87 87.95,-190.47 86.66,-183.59"/>
<text text-anchor="middle" x="208.25" y="-145.7" font-family="Times,serif" font-size="14.00">&#45;0.97</text>
</g>
<!-- H1&#45;&gt;O2 -->
<g id="edge23" class="edge">
<title>H1&#45;&gt;O2</title>
<path fill="none" stroke="black" d="M501.02,-122.96C490.92,-136 476.3,-154.88 464.66,-169.9"/>
<polygon fill="black" stroke="black" points="462.16,-167.42 458.8,-177.47 467.69,-171.71 462.16,-167.42"/>
<text text-anchor="middle" x="636.25" y="-145.7" font-family="Times,serif" font-size="14.00">&#45;0.45</text>
</g>
<!-- H1&#45;&gt;O3 -->
<g id="edge24" class="edge">
<title>H1&#45;&gt;O3</title>
<path fill="none" stroke="black" d="M490.08,-116.59C451.48,-131.91 373.35,-162.91 328.56,-180.68"/>
<polygon fill="black" stroke="black" points="327.35,-177.4 319.34,-184.34 329.93,-183.91 327.35,-177.4"/>
<text text-anchor="middle" x="487" y="-145.7" font-family="Times,serif" font-size="14.00">0.25</text>
</g>
<!-- H1&#45;&gt;O4 -->
<g id="edge25" class="edge">
<title>H1&#45;&gt;O4</title>
<path fill="none" stroke="black" d="M526.4,-122.17C538.66,-135.59 556.98,-155.66 571.15,-171.17"/>
<polygon fill="black" stroke="black" points="568.18,-173.11 577.51,-178.14 573.35,-168.39 568.18,-173.11"/>
<text text-anchor="middle" x="669.25" y="-145.7" font-family="Times,serif" font-size="14.00">&#45;0.86</text>
</g>
<!-- H2&#45;&gt;O0 -->
<g id="edge26" class="edge">
<title>H2&#45;&gt;O0</title>
<path fill="none" stroke="black" d="M132.77,-124.59C134.65,-136.24 137.19,-151.95 139.38,-165.48"/>
<polygon fill="black" stroke="black" points="135.9,-165.84 140.95,-175.16 142.81,-164.72 135.9,-165.84"/>
<text text-anchor="middle" x="110" y="-145.7" font-family="Times,serif" font-size="14.00">0.16</text>
</g>
<!-- H2&#45;&gt;O1 -->
<g id="edge27" class="edge">
<title>H2&#45;&gt;O1</title>
<path fill="none" stroke="black" d="M116.43,-122.17C104.02,-135.59 85.46,-155.66 71.11,-171.17"/>
<polygon fill="black" stroke="black" points="68.89,-168.43 64.67,-178.14 74.02,-173.18 68.89,-168.43"/>
<text text-anchor="middle" x="14.25" y="-145.7" font-family="Times,serif" font-size="14.00">&#45;0.25</text>
</g>
<!-- H2&#45;&gt;O2 -->
<g id="edge28" class="edge">
<title>H2&#45;&gt;O2</title>
<path fill="none" stroke="black" d="M154.8,-114.29C210.52,-129.54 345.83,-166.58 410.47,-184.27"/>
<polygon fill="black" stroke="black" points="409.29,-187.58 419.86,-186.84 411.14,-180.83 409.29,-187.58"/>
<text text-anchor="middle" x="408" y="-145.7" font-family="Times,serif" font-size="14.00">0.15</text>
</g>
<!-- H2&#45;&gt;O3 -->
<g id="edge29" class="edge">
<title>H2&#45;&gt;O3</title>
<path fill="none" stroke="black" d="M150.9,-118.46C179.54,-133.47 231.19,-160.55 264.24,-177.88"/>
<polygon fill="black" stroke="black" points="262.45,-180.89 272.93,-182.43 265.7,-174.69 262.45,-180.89"/>
<text text-anchor="middle" x="259" y="-145.7" font-family="Times,serif" font-size="14.00">0.84</text>
</g>
<!-- H2&#45;&gt;O4 -->
<g id="edge30" class="edge">
<title>H2&#45;&gt;O4</title>
<path fill="none" stroke="black" d="M155.83,-112.34C233.38,-126.86 464.43,-170.11 554.99,-187.07"/>
<polygon fill="black" stroke="black" points="554.11,-190.47 564.58,-188.87 555.4,-183.59 554.11,-190.47"/>
<text text-anchor="middle" x="543.25" y="-145.7" font-family="Times,serif" font-size="14.00">&#45;0.11</text>
</g>
</g>
</svg>
