<?xml version="1.0" encoding="UTF-8" standalone="no"?>
<!DOCTYPE svg PUBLIC "-//W3C//DTD SVG 1.1//EN"
 "http://www.w3.org/Graphics/SVG/1.1/DTD/svg11.dtd">
<!-- Generated by graphviz version 9.0.0 (20230911.1827)
 -->
<!-- Pages: 1 -->
<svg width="694pt" height="221pt"
 viewBox="0.00 0.00 694.00 221.00" xmlns="http://www.w3.org/2000/svg" xmlns:xlink="http://www.w3.org/1999/xlink">
<g id="graph0" class="graph" transform="scale(1 1) rotate(0) translate(4 217)">
<polygon fill="white" stroke="none" points="-4,4 -4,-217 690,-217 690,4 -4,4"/>
<!-- I0 -->
<g id="node1" class="node">
<title>I0</title>
<ellipse fill="white" stroke="black" cx="240" cy="-18" rx="27" ry="18"/>
<text text-anchor="middle" x="240" y="-12.95" font-family="Times,serif" font-size="14.00">I0</text>
</g>
<!-- H0 -->
<g id="node6" class="node">
<title>H0</title>
<ellipse fill="white" stroke="black" cx="300" cy="-106.5" rx="27" ry="18"/>
<text text-anchor="middle" x="300" y="-101.45" font-family="Times,serif" font-size="14.00">H0</text>
</g>
<!-- I0&#45;&gt;H0 -->
<g id="edge1" class="edge">
<title>I0&#45;&gt;H0</title>
<path fill="none" stroke="black" d="M251,-34.87C259.89,-47.67 272.54,-65.91 282.76,-80.65"/>
<polygon fill="black" stroke="black" points="279.63,-82.27 288.2,-88.49 285.38,-78.28 279.63,-82.27"/>
<text text-anchor="middle" x="285" y="-57.2" font-family="Times,serif" font-size="14.00">0.44</text>
</g>
<!-- H1 -->
<g id="node7" class="node">
<title>H1</title>
<ellipse fill="white" stroke="black" cx="519" cy="-106.5" rx="27" ry="18"/>
<text text-anchor="middle" x="519" y="-101.45" font-family="Times,serif" font-size="14.00">H1</text>
</g>
<!-- I0&#45;&gt;H1 -->
<g id="edge2" class="edge">
<title>I0&#45;&gt;H1</title>
<path fill="none" stroke="black" d="M264.27,-26.52C313.86,-41.9 426.96,-76.96 484.29,-94.74"/>
<polygon fill="black" stroke="black" points="482.95,-97.99 493.54,-97.61 485.02,-91.3 482.95,-97.99"/>
<text text-anchor="middle" x="500.25" y="-57.2" font-family="Times,serif" font-size="14.00">&#45;0.28</text>
</g>
<!-- H2 -->
<g id="node8" class="node">
<title>H2</title>
<ellipse fill="white" stroke="black" cx="134" cy="-106.5" rx="27" ry="18"/>
<text text-anchor="middle" x="134" y="-101.45" font-family="Times,serif" font-size="14.00">H2</text>
</g>
<!-- I0&#45;&gt;H2 -->
<g id="edge3" class="edge">
<title>I0&#45;&gt;H2</title>
<path fill="none" stroke="black" d="M223.44,-32.52C206.25,-46.54 179.14,-68.66 159.27,-84.88"/>
<polygon fill="black" stroke="black" points="157.15,-82.09 151.62,-91.12 161.58,-87.51 157.15,-82.09"/>
<text text-anchor="middle" x="83.62" y="-57.2" font-family="Times,serif" font-size="14.00">0.9</text>
</g>
<!-- I1 -->
<g id="node2" class="node">
<title>I1</title>
<ellipse fill="white" stroke="black" cx="384" cy="-18" rx="27" ry="18"/>
<text text-anchor="middle" x="384" y="-12.95" font-family="Times,serif" font-size="14.00">I1</text>
</g>
<!-- I1&#45;&gt;H0 -->
<g id="edge4" class="edge">
<title>I1&#45;&gt;H0</title>
<path fill="none" stroke="black" d="M369.75,-33.67C356.72,-47.09 337.23,-67.16 322.17,-82.67"/>
<polygon fill="black" stroke="black" points="319.83,-80.06 315.37,-89.67 324.85,-84.93 319.83,-80.06"/>
<text text-anchor="middle" x="360" y="-57.2" font-family="Times,serif" font-size="14.00">0.78</text>
</g>
<!-- I1&#45;&gt;H1 -->
<g id="edge5" class="edge">
<title>I1&#45;&gt;H1</title>
<path fill="none" stroke="black" d="M403.06,-31.21C425.87,-45.83 464.29,-70.45 490.61,-87.31"/>
<polygon fill="black" stroke="black" points="488.46,-90.09 498.77,-92.54 492.24,-84.19 488.46,-90.09"/>
<text text-anchor="middle" x="578.62" y="-57.2" font-family="Times,serif" font-size="14.00">0.5</text>
</g>
<!-- I1&#45;&gt;H2 -->
<g id="edge6" class="edge">
<title>I1&#45;&gt;H2</title>
<path fill="none" stroke="black" d="M360.48,-27.14C316.09,-42.5 219.8,-75.81 168.23,-93.66"/>
<polygon fill="black" stroke="black" points="167.38,-90.25 159.07,-96.83 169.66,-96.86 167.38,-90.25"/>
<text text-anchor="middle" x="198.25" y="-57.2" font-family="Times,serif" font-size="14.00">&#45;0.15</text>
</g>
<!-- I2 -->
<g id="node3" class="node">
<title>I2</title>
<ellipse fill="white" stroke="black" cx="168" cy="-18" rx="27" ry="18"/>
<text text-anchor="middle" x="168" y="-12.95" font-family="Times,serif" font-size="14.00">I2</text>
</g>
<!-- I2&#45;&gt;H0 -->
<g id="edge7" class="edge">
<title>I2&#45;&gt;H0</title>
<path fill="none" stroke="black" d="M186.91,-31.39C209.06,-45.91 245.99,-70.1 271.59,-86.88"/>
<polygon fill="black" stroke="black" points="269.57,-89.75 279.86,-92.3 273.41,-83.89 269.57,-89.75"/>
<text text-anchor="middle" x="248" y="-57.2" font-family="Times,serif" font-size="14.00">0.45</text>
</g>
<!-- I2&#45;&gt;H1 -->
<g id="edge8" class="edge">
<title>I2&#45;&gt;H1</title>
<path fill="none" stroke="black" d="M193.24,-25.22C254.59,-40.34 411.69,-79.05 482.92,-96.61"/>
<polygon fill="black" stroke="black" points="481.97,-99.98 492.52,-98.97 483.64,-93.18 481.97,-99.98"/>
<text text-anchor="middle" x="455" y="-57.2" font-family="Times,serif" font-size="14.00">0.95</text>
</g>
<!-- I2&#45;&gt;H2 -->
<g id="edge9" class="edge">
<title>I2&#45;&gt;H2</title>
<path fill="none" stroke="black" d="M161.44,-35.68C156.72,-47.69 150.25,-64.16 144.78,-78.09"/>
<polygon fill="black" stroke="black" points="141.61,-76.58 141.21,-87.17 148.12,-79.14 141.61,-76.58"/>
<text text-anchor="middle" x="40" y="-57.2" font-family="Times,serif" font-size="14.00">0.82</text>
</g>
<!-- I3 -->
<g id="node4" class="node">
<title>I3</title>
<ellipse fill="white" stroke="black" cx="312" cy="-18" rx="27" ry="18"/>
<text text-anchor="middle" x="312" y="-12.95" font-family="Times,serif" font-size="14.00">I3</text>
</g>
<!-- I3&#45;&gt;H0 -->
<g id="edge10" class="edge">
<title>I3&#45;&gt;H0</title>
<path fill="none" stroke="black" d="M309.63,-36.09C308.01,-47.74 305.83,-63.45 303.96,-76.98"/>
<polygon fill="black" stroke="black" points="300.52,-76.26 302.61,-86.65 307.46,-77.23 300.52,-76.26"/>
<text text-anchor="middle" x="313" y="-57.2" font-family="Times,serif" font-size="14.00">0.71</text>
</g>
<!-- I3&#45;&gt;H1 -->
<g id="edge11" class="edge">
<title>I3&#45;&gt;H1</title>
<path fill="none" stroke="black" d="M334.55,-28.42C371.1,-43.7 443.46,-73.94 485.88,-91.66"/>
<polygon fill="black" stroke="black" points="484.51,-94.88 495.08,-95.51 487.21,-88.42 484.51,-94.88"/>
<text text-anchor="middle" x="535" y="-57.2" font-family="Times,serif" font-size="14.00">0.69</text>
</g>
<!-- I3&#45;&gt;H2 -->
<g id="edge12" class="edge">
<title>I3&#45;&gt;H2</title>
<path fill="none" stroke="black" d="M290.53,-29.43C259.39,-44.57 201.5,-72.7 165.52,-90.18"/>
<polygon fill="black" stroke="black" points="164.37,-86.85 156.91,-94.37 167.43,-93.14 164.37,-86.85"/>
<text text-anchor="middle" x="123.62" y="-57.2" font-family="Times,serif" font-size="14.00">1.0</text>
</g>
<!-- I4 -->
<g id="node5" class="node">
<title>I4</title>
<ellipse fill="white" stroke="black" cx="632" cy="-18" rx="27" ry="18"/>
<text text-anchor="middle" x="632" y="-12.95" font-family="Times,serif" font-size="14.00">I4</text>
</g>
<!-- I4&#45;&gt;H0 -->
<g id="edge13" class="edge">
<title>I4&#45;&gt;H0</title>
<path fill="none" stroke="black" d="M607.05,-25.5C548.74,-40.69 403.4,-78.56 335.72,-96.19"/>
<polygon fill="black" stroke="black" points="335.05,-92.75 326.26,-98.66 336.81,-99.52 335.05,-92.75"/>
<text text-anchor="middle" x="617.25" y="-57.2" font-family="Times,serif" font-size="14.00">&#45;0.65</text>
</g>
<!-- I4&#45;&gt;H1 -->
<g id="edge14" class="edge">
<title>I4&#45;&gt;H1</title>
<path fill="none" stroke="black" d="M614.84,-32.14C596.34,-46.3 566.66,-69.01 545.23,-85.42"/>
<polygon fill="black" stroke="black" points="543.34,-82.46 537.53,-91.32 547.59,-88.02 543.34,-82.46"/>
<text text-anchor="middle" x="674" y="-57.2" font-family="Times,serif" font-size="14.00">0.96</text>
</g>
<!-- I4&#45;&gt;H2 -->
<g id="edge15" class="edge">
<title>I4&#45;&gt;H2</title>
<path fill="none" stroke="black" d="M605.93,-23.53C523.41,-37.86 267.76,-82.27 171.33,-99.02"/>
<polygon fill="black" stroke="black" points="170.86,-95.55 161.61,-100.7 172.06,-102.44 170.86,-95.55"/>
<text text-anchor="middle" x="406.25" y="-57.2" font-family="Times,serif" font-size="14.00">&#45;0.98</text>
</g>
<!-- O0 -->
<g id="node9" class="node">
<title>O0</title>
<ellipse fill="white" stroke="black" cx="149" cy="-195" rx="27" ry="18"/>
<text text-anchor="middle" x="149" y="-189.95" font-family="Times,serif" font-size="14.00">O0</text>
</g>
<!-- H0&#45;&gt;O0 -->
<g id="edge16" class="edge">
<title>H0&#45;&gt;O0</title>
<path fill="none" stroke="black" d="M279.95,-118.99C254.11,-133.79 208.97,-159.64 179.03,-176.79"/>
<polygon fill="black" stroke="black" points="177.39,-173.71 170.45,-181.71 180.86,-179.78 177.39,-173.71"/>
<text text-anchor="middle" x="165.25" y="-145.7" font-family="Times,serif" font-size="14.00">&#45;0.06</text>
</g>
<!-- O1 -->
<g id="node10" class="node">
<title>O1</title>
<ellipse fill="white" stroke="black" cx="50" cy="-195" rx="27" ry="18"/>
<text text-anchor="middle" x="50" y="-189.95" font-family="Times,serif" font-size="14.00">O1</text>
</g>
<!-- H0&#45;&gt;O1 -->
<g id="edge17" class="edge">
<title>H0&#45;&gt;O1</title>
<path fill="none" stroke="black" d="M276.48,-115.64C232.09,-131 135.8,-164.31 84.23,-182.16"/>
<polygon fill="black" stroke="black" points="83.38,-178.75 75.07,-185.33 85.66,-185.36 83.38,-178.75"/>
<text text-anchor="middle" x="85.25" y="-145.7" font-family="Times,serif" font-size="14.00">&#45;0.11</text>
</g>
<!-- O2 -->
<g id="node11" class="node">
<title>O2</title>
<ellipse fill="white" stroke="black" cx="441" cy="-195" rx="27" ry="18"/>
<text text-anchor="middle" x="441" y="-189.95" font-family="Times,serif" font-size="14.00">O2</text>
</g>
<!-- H0&#45;&gt;O2 -->
<g id="edge18" class="edge">
<title>H0&#45;&gt;O2</title>
<path fill="none" stroke="black" d="M319.31,-119.35C343.22,-134.02 384.19,-159.15 411.91,-176.15"/>
<polygon fill="black" stroke="black" points="409.83,-178.98 420.18,-181.23 413.49,-173.02 409.83,-178.98"/>
<text text-anchor="middle" x="436.88" y="-145.7" font-family="Times,serif" font-size="14.00">&#45;0.3</text>
</g>
<!-- O3 -->
<g id="node12" class="node">
<title>O3</title>
<ellipse fill="white" stroke="black" cx="300" cy="-195" rx="27" ry="18"/>
<text text-anchor="middle" x="300" y="-189.95" font-family="Times,serif" font-size="14.00">O3</text>
</g>
<!-- H0&#45;&gt;O3 -->
<g id="edge19" class="edge">
<title>H0&#45;&gt;O3</title>
<path fill="none" stroke="black" d="M300,-124.59C300,-136.24 300,-151.95 300,-165.48"/>
<polygon fill="black" stroke="black" points="296.5,-165.14 300,-175.14 303.5,-165.14 296.5,-165.14"/>
<text text-anchor="middle" x="312" y="-145.7" font-family="Times,serif" font-size="14.00">0.76</text>
</g>
<!-- O4 -->
<g id="node13" class="node">
<title>O4</title>
<ellipse fill="white" stroke="black" cx="585" cy="-195" rx="27" ry="18"/>
<text text-anchor="middle" x="585" y="-189.95" font-family="Times,serif" font-size="14.00">O4</text>
</g>
<!-- H0&#45;&gt;O4 -->
<g id="edge20" class="edge">
<title>H0&#45;&gt;O4</title>
<path fill="none" stroke="black" d="M324.3,-114.87C374.78,-130.2 491.16,-165.52 549.83,-183.33"/>
<polygon fill="black" stroke="black" points="548.73,-186.65 559.31,-186.2 550.76,-179.95 548.73,-186.65"/>
<text text-anchor="middle" x="581" y="-145.7" font-family="Times,serif" font-size="14.00">0.37</text>
</g>
<!-- H1&#45;&gt;O0 -->
<g id="edge21" class="edge">
<title>H1&#45;&gt;O0</title>
<path fill="none" stroke="black" d="M493.57,-113.45C429.25,-128.48 259.94,-168.07 185.26,-185.52"/>
<polygon fill="black" stroke="black" points="184.53,-182.1 175.59,-187.78 186.13,-188.91 184.53,-182.1"/>
<text text-anchor="middle" x="356" y="-145.7" font-family="Times,serif" font-size="14.00">0.95</text>
</g>
<!-- H1&#45;&gt;O1 -->
<g id="edge22" class="edge">
<title>H1&#45;&gt;O1</title>
<path fill="none" stroke="black" d="M493.12,-112.27C414.65,-126.75 179.22,-170.17 87.32,-187.12"/>
<polygon fill="black" stroke="black" points="86.78,-183.66 77.58,-188.91 88.05,-190.54 86.78,-183.66"/>
<text text-anchor="middle" x="210" y="-145.7" font-family="Times,serif" font-size="14.00">0.87</text>
</g>
<!-- H1&#45;&gt;O2 -->
<g id="edge23" class="edge">
<title>H1&#45;&gt;O2</title>
<path fill="none" stroke="black" d="M505.41,-122.57C493.45,-135.84 475.82,-155.38 462.03,-170.67"/>
<polygon fill="black" stroke="black" points="459.54,-168.21 455.44,-177.98 464.74,-172.9 459.54,-168.21"/>
<text text-anchor="middle" x="622" y="-145.7" font-family="Times,serif" font-size="14.00">0.58</text>
</g>
<!-- H1&#45;&gt;O3 -->
<g id="edge24" class="edge">
<title>H1&#45;&gt;O3</title>
<path fill="none" stroke="black" d="M495.98,-116.59C457.1,-131.95 378.3,-163.07 333.36,-180.82"/>
<polygon fill="black" stroke="black" points="332.14,-177.54 324.12,-184.47 334.71,-184.05 332.14,-177.54"/>
<text text-anchor="middle" x="484" y="-145.7" font-family="Times,serif" font-size="14.00">0.75</text>
</g>
<!-- H1&#45;&gt;O4 -->
<g id="edge25" class="edge">
<title>H1&#45;&gt;O4</title>
<path fill="none" stroke="black" d="M530.8,-122.96C540.69,-135.92 554.98,-154.65 566.4,-169.62"/>
<polygon fill="black" stroke="black" points="563.31,-171.35 572.16,-177.17 568.88,-167.1 563.31,-171.35"/>
<text text-anchor="middle" x="669" y="-145.7" font-family="Times,serif" font-size="14.00">0.15</text>
</g>
<!-- H2&#45;&gt;O0 -->
<g id="edge26" class="edge">
<title>H2&#45;&gt;O0</title>
<path fill="none" stroke="black" d="M136.96,-124.59C138.98,-136.24 141.71,-151.95 144.05,-165.48"/>
<polygon fill="black" stroke="black" points="140.58,-165.9 145.73,-175.16 147.47,-164.71 140.58,-165.9"/>
<text text-anchor="middle" x="115" y="-145.7" font-family="Times,serif" font-size="14.00">0.05</text>
</g>
<!-- H2&#45;&gt;O1 -->
<g id="edge27" class="edge">
<title>H2&#45;&gt;O1</title>
<path fill="none" stroke="black" d="M119.75,-122.17C106.72,-135.59 87.23,-155.66 72.17,-171.17"/>
<polygon fill="black" stroke="black" points="69.83,-168.56 65.37,-178.17 74.85,-173.43 69.83,-168.56"/>
<text text-anchor="middle" x="14.25" y="-145.7" font-family="Times,serif" font-size="14.00">&#45;0.89</text>
</g>
<!-- H2&#45;&gt;O2 -->
<g id="edge28" class="edge">
<title>H2&#45;&gt;O2</title>
<path fill="none" stroke="black" d="M158.6,-114.43C212.72,-129.68 342.26,-166.18 405.31,-183.94"/>
<polygon fill="black" stroke="black" points="404.25,-187.28 414.82,-186.62 406.15,-180.54 404.25,-187.28"/>
<text text-anchor="middle" x="403" y="-145.7" font-family="Times,serif" font-size="14.00">0.94</text>
</g>
<!-- H2&#45;&gt;O3 -->
<g id="edge29" class="edge">
<title>H2&#45;&gt;O3</title>
<path fill="none" stroke="black" d="M154.69,-118.28C183.39,-133.24 235.53,-160.4 268.92,-177.8"/>
<polygon fill="black" stroke="black" points="267.22,-180.87 277.71,-182.38 270.46,-174.66 267.22,-180.87"/>
<text text-anchor="middle" x="262.25" y="-145.7" font-family="Times,serif" font-size="14.00">&#45;0.01</text>
</g>
<!-- H2&#45;&gt;O4 -->
<g id="edge30" class="edge">
<title>H2&#45;&gt;O4</title>
<path fill="none" stroke="black" d="M159.87,-112.46C236,-127.06 459.47,-169.92 548.13,-186.93"/>
<polygon fill="black" stroke="black" points="547.27,-190.33 557.75,-188.77 548.59,-183.45 547.27,-190.33"/>
<text text-anchor="middle" x="539.25" y="-145.7" font-family="Times,serif" font-size="14.00">&#45;0.08</text>
</g>
</g>
</svg>
