<?xml version="1.0" encoding="UTF-8" standalone="no"?>
<!DOCTYPE svg PUBLIC "-//W3C//DTD SVG 1.1//EN"
 "http://www.w3.org/Graphics/SVG/1.1/DTD/svg11.dtd">
<!-- Generated by graphviz version 9.0.0 (20230911.1827)
 -->
<!-- Pages: 1 -->
<svg width="134pt" height="575pt"
 viewBox="0.00 0.00 134.00 575.00" xmlns="http://www.w3.org/2000/svg" xmlns:xlink="http://www.w3.org/1999/xlink">
<g id="graph0" class="graph" transform="scale(1 1) rotate(0) translate(4 571)">
<polygon fill="white" stroke="none" points="-4,4 -4,-571 130,-571 130,4 -4,4"/>
<!-- 0 -->
<g id="node1" class="node">
<title>0</title>
<ellipse fill="none" stroke="black" cx="63" cy="-549" rx="27" ry="18"/>
<text text-anchor="middle" x="63" y="-543.95" font-family="Times,serif" font-size="14.00">0</text>
</g>
<!-- 1 -->
<g id="node2" class="node">
<title>1</title>
<ellipse fill="none" stroke="black" cx="27" cy="-460.5" rx="27" ry="18"/>
<text text-anchor="middle" x="27" y="-455.45" font-family="Times,serif" font-size="14.00">1</text>
</g>
<!-- 0&#45;&gt;1 -->
<g id="edge1" class="edge">
<title>0&#45;&gt;1</title>
<path fill="none" stroke="black" d="M56.06,-531.32C51.03,-519.24 44.12,-502.63 38.3,-488.64"/>
<polygon fill="black" stroke="black" points="41.58,-487.41 34.5,-479.52 35.11,-490.1 41.58,-487.41"/>
<text text-anchor="middle" x="57.62" y="-499.7" font-family="Times,serif" font-size="14.00">0.5</text>
</g>
<!-- 2 -->
<g id="node3" class="node">
<title>2</title>
<ellipse fill="none" stroke="black" cx="99" cy="-460.5" rx="27" ry="18"/>
<text text-anchor="middle" x="99" y="-455.45" font-family="Times,serif" font-size="14.00">2</text>
</g>
<!-- 0&#45;&gt;2 -->
<g id="edge2" class="edge">
<title>0&#45;&gt;2</title>
<path fill="none" stroke="black" d="M69.94,-531.32C74.97,-519.24 81.88,-502.63 87.7,-488.64"/>
<polygon fill="black" stroke="black" points="90.89,-490.1 91.5,-479.52 84.42,-487.41 90.89,-490.1"/>
<text text-anchor="middle" x="92.62" y="-499.7" font-family="Times,serif" font-size="14.00">0.5</text>
</g>
<!-- 3 -->
<g id="node4" class="node">
<title>3</title>
<ellipse fill="none" stroke="black" cx="63" cy="-372" rx="27" ry="18"/>
<text text-anchor="middle" x="63" y="-366.95" font-family="Times,serif" font-size="14.00">3</text>
</g>
<!-- 1&#45;&gt;3 -->
<g id="edge3" class="edge">
<title>1&#45;&gt;3</title>
<path fill="none" stroke="black" d="M33.94,-442.82C38.97,-430.74 45.88,-414.13 51.7,-400.14"/>
<polygon fill="black" stroke="black" points="54.89,-401.6 55.5,-391.02 48.42,-398.91 54.89,-401.6"/>
<text text-anchor="middle" x="57.62" y="-411.2" font-family="Times,serif" font-size="14.00">0.5</text>
</g>
<!-- 2&#45;&gt;3 -->
<g id="edge4" class="edge">
<title>2&#45;&gt;3</title>
<path fill="none" stroke="black" d="M92.06,-442.82C87.03,-430.74 80.12,-414.13 74.3,-400.14"/>
<polygon fill="black" stroke="black" points="77.58,-398.91 70.5,-391.02 71.11,-401.6 77.58,-398.91"/>
<text text-anchor="middle" x="92.62" y="-411.2" font-family="Times,serif" font-size="14.00">0.5</text>
</g>
<!-- 4 -->
<g id="node5" class="node">
<title>4</title>
<ellipse fill="none" stroke="black" cx="27" cy="-283.5" rx="27" ry="18"/>
<text text-anchor="middle" x="27" y="-278.45" font-family="Times,serif" font-size="14.00">4</text>
</g>
<!-- 3&#45;&gt;4 -->
<g id="edge5" class="edge">
<title>3&#45;&gt;4</title>
<path fill="none" stroke="black" d="M56.06,-354.32C51.03,-342.24 44.12,-325.63 38.3,-311.64"/>
<polygon fill="black" stroke="black" points="41.58,-310.41 34.5,-302.52 35.11,-313.1 41.58,-310.41"/>
<text text-anchor="middle" x="57.62" y="-322.7" font-family="Times,serif" font-size="14.00">0.5</text>
</g>
<!-- 5 -->
<g id="node6" class="node">
<title>5</title>
<ellipse fill="none" stroke="black" cx="99" cy="-283.5" rx="27" ry="18"/>
<text text-anchor="middle" x="99" y="-278.45" font-family="Times,serif" font-size="14.00">5</text>
</g>
<!-- 3&#45;&gt;5 -->
<g id="edge6" class="edge">
<title>3&#45;&gt;5</title>
<path fill="none" stroke="black" d="M69.94,-354.32C74.97,-342.24 81.88,-325.63 87.7,-311.64"/>
<polygon fill="black" stroke="black" points="90.89,-313.1 91.5,-302.52 84.42,-310.41 90.89,-313.1"/>
<text text-anchor="middle" x="92.62" y="-322.7" font-family="Times,serif" font-size="14.00">0.5</text>
</g>
<!-- 6 -->
<g id="node7" class="node">
<title>6</title>
<ellipse fill="none" stroke="black" cx="63" cy="-195" rx="27" ry="18"/>
<text text-anchor="middle" x="63" y="-189.95" font-family="Times,serif" font-size="14.00">6</text>
</g>
<!-- 4&#45;&gt;6 -->
<g id="edge7" class="edge">
<title>4&#45;&gt;6</title>
<path fill="none" stroke="black" d="M33.94,-265.82C38.97,-253.74 45.88,-237.13 51.7,-223.14"/>
<polygon fill="black" stroke="black" points="54.89,-224.6 55.5,-214.02 48.42,-221.91 54.89,-224.6"/>
<text text-anchor="middle" x="57.62" y="-234.2" font-family="Times,serif" font-size="14.00">0.5</text>
</g>
<!-- 5&#45;&gt;6 -->
<g id="edge8" class="edge">
<title>5&#45;&gt;6</title>
<path fill="none" stroke="black" d="M92.06,-265.82C87.03,-253.74 80.12,-237.13 74.3,-223.14"/>
<polygon fill="black" stroke="black" points="77.58,-221.91 70.5,-214.02 71.11,-224.6 77.58,-221.91"/>
<text text-anchor="middle" x="92.62" y="-234.2" font-family="Times,serif" font-size="14.00">0.5</text>
</g>
<!-- 7 -->
<g id="node8" class="node">
<title>7</title>
<ellipse fill="none" stroke="black" cx="27" cy="-106.5" rx="27" ry="18"/>
<text text-anchor="middle" x="27" y="-101.45" font-family="Times,serif" font-size="14.00">7</text>
</g>
<!-- 6&#45;&gt;7 -->
<g id="edge9" class="edge">
<title>6&#45;&gt;7</title>
<path fill="none" stroke="black" d="M56.06,-177.32C51.03,-165.24 44.12,-148.63 38.3,-134.64"/>
<polygon fill="black" stroke="black" points="41.58,-133.41 34.5,-125.52 35.11,-136.1 41.58,-133.41"/>
<text text-anchor="middle" x="57.62" y="-145.7" font-family="Times,serif" font-size="14.00">0.5</text>
</g>
<!-- 8 -->
<g id="node9" class="node">
<title>8</title>
<ellipse fill="none" stroke="black" cx="99" cy="-106.5" rx="27" ry="18"/>
<text text-anchor="middle" x="99" y="-101.45" font-family="Times,serif" font-size="14.00">8</text>
</g>
<!-- 6&#45;&gt;8 -->
<g id="edge10" class="edge">
<title>6&#45;&gt;8</title>
<path fill="none" stroke="black" d="M69.94,-177.32C74.97,-165.24 81.88,-148.63 87.7,-134.64"/>
<polygon fill="black" stroke="black" points="90.89,-136.1 91.5,-125.52 84.42,-133.41 90.89,-136.1"/>
<text text-anchor="middle" x="92.62" y="-145.7" font-family="Times,serif" font-size="14.00">0.5</text>
</g>
<!-- 9 -->
<g id="node10" class="node">
<title>9</title>
<ellipse fill="none" stroke="black" cx="63" cy="-18" rx="27" ry="18"/>
<text text-anchor="middle" x="63" y="-12.95" font-family="Times,serif" font-size="14.00">9</text>
</g>
<!-- 7&#45;&gt;9 -->
<g id="edge11" class="edge">
<title>7&#45;&gt;9</title>
<path fill="none" stroke="black" d="M33.94,-88.82C38.97,-76.74 45.88,-60.13 51.7,-46.14"/>
<polygon fill="black" stroke="black" points="54.89,-47.6 55.5,-37.02 48.42,-44.91 54.89,-47.6"/>
<text text-anchor="middle" x="57.62" y="-57.2" font-family="Times,serif" font-size="14.00">0.5</text>
</g>
<!-- 8&#45;&gt;9 -->
<g id="edge12" class="edge">
<title>8&#45;&gt;9</title>
<path fill="none" stroke="black" d="M92.06,-88.82C87.03,-76.74 80.12,-60.13 74.3,-46.14"/>
<polygon fill="black" stroke="black" points="77.58,-44.91 70.5,-37.02 71.11,-47.6 77.58,-44.91"/>
<text text-anchor="middle" x="92.62" y="-57.2" font-family="Times,serif" font-size="14.00">0.5</text>
</g>
</g>
</svg>
